<svg width="24" height="25" viewBox="0 0 24 25" fill="none" xmlns="http://www.w3.org/2000/svg">
<path d="M20.5528 15.6859C20.081 14.6613 19.5161 13.6822 18.8653 12.7609C19.5161 11.8395 20.081 10.8604 20.5528 9.83587C21.6628 7.3693 21.6488 5.38462 20.5125 4.24837C19.3763 3.11212 17.3916 3.09805 14.925 4.20805C13.9004 4.67989 12.9213 5.24476 12 5.89555C11.0787 5.24476 10.0996 4.67989 9.075 4.20805C6.60844 3.09805 4.62375 3.11212 3.4875 4.24837C2.35125 5.38462 2.33719 7.3693 3.44719 9.83587C3.91903 10.8604 4.4839 11.8395 5.13469 12.7609C4.4839 13.6822 3.91903 14.6613 3.44719 15.6859C2.33719 18.1524 2.35125 20.1371 3.4875 21.2734C4.06219 21.8481 4.85438 22.1359 5.8125 22.1359C6.75 22.1359 7.85344 21.8621 9.07125 21.3137C10.0958 20.8418 11.0749 20.277 11.9963 19.6262C12.9176 20.277 13.8967 20.8418 14.9213 21.3137C16.14 21.8621 17.2406 22.1359 18.18 22.1359C19.1419 22.1359 19.9341 21.8481 20.5088 21.2734C21.6488 20.1371 21.6628 18.1524 20.5528 15.6859ZM18.9206 5.84212C19.4128 6.33524 19.0884 8.27961 17.4206 10.884C16.8947 10.2596 16.3284 9.6418 15.7266 9.03993C15.1247 8.43805 14.5031 7.86993 13.875 7.34399C16.4831 5.67243 18.4275 5.34805 18.9206 5.84024V5.84212ZM16.0538 12.7609C15.451 13.5047 14.8091 14.216 14.1309 14.8918C13.4551 15.57 12.7438 16.2118 12 16.8146C11.2562 16.2118 10.5449 15.57 9.86906 14.8918C9.19087 14.216 8.54904 13.5047 7.94625 12.7609C9.15519 11.2744 10.5136 9.91605 12 8.70712C12.744 9.30966 13.4554 9.95151 14.1309 10.6299C14.8094 11.3055 15.4512 12.0168 16.0538 12.7609ZM5.07938 5.84024C5.21625 5.7043 5.46375 5.63024 5.80594 5.63024C6.69938 5.63024 8.23781 6.13555 10.1184 7.34399C9.49406 7.86993 8.87625 8.43618 8.27438 9.03805C7.6725 9.63993 7.10906 10.2577 6.58313 10.8859C4.91156 8.27774 4.58719 6.33337 5.07938 5.84024ZM5.07938 19.6815C4.58719 19.1884 4.91156 17.244 6.57938 14.6396C7.10531 15.264 7.67156 15.8818 8.27344 16.4837C8.87531 17.0856 9.49219 17.6518 10.1175 18.1777C7.51688 19.8493 5.5725 20.1737 5.07938 19.6815ZM18.9206 19.6815C18.4275 20.1737 16.4831 19.8493 13.8787 18.1815C14.5031 17.6556 15.1209 17.0893 15.7228 16.4874C16.3247 15.8856 16.8909 15.2687 17.4169 14.6434C19.0884 17.244 19.4128 19.1884 18.9206 19.6815ZM13.5 12.7609C13.5 13.0575 13.412 13.3475 13.2472 13.5942C13.0824 13.8409 12.8481 14.0332 12.574 14.1467C12.2999 14.2602 11.9983 14.2899 11.7074 14.232C11.4164 14.1742 11.1491 14.0313 10.9393 13.8215C10.7296 13.6117 10.5867 13.3445 10.5288 13.0535C10.4709 12.7625 10.5006 12.4609 10.6142 12.1868C10.7277 11.9128 10.92 11.6785 11.1666 11.5137C11.4133 11.3488 11.7033 11.2609 12 11.2609C12.3978 11.2609 12.7794 11.4189 13.0607 11.7002C13.342 11.9815 13.5 12.363 13.5 12.7609Z" fill="#1A1A1A"/>
</svg>
