<svg width="25" height="25" viewBox="0 0 25 25" fill="none" xmlns="http://www.w3.org/2000/svg">
<g clip-path="url(#clip0_929_17921)">
<path d="M2.58331 10.8858H4.45831V15.3858H3.33331C3.03494 15.3858 2.7488 15.5043 2.53782 15.7153C2.32684 15.9263 2.20831 16.2124 2.20831 16.5108C2.20831 16.8092 2.32684 17.0953 2.53782 17.3063C2.7488 17.5173 3.03494 17.6358 3.33331 17.6358H21.3333C21.6317 17.6358 21.9178 17.5173 22.1288 17.3063C22.3398 17.0953 22.4583 16.8092 22.4583 16.5108C22.4583 16.2124 22.3398 15.9263 22.1288 15.7153C21.9178 15.5043 21.6317 15.3858 21.3333 15.3858H20.2083V10.8858H22.0833C22.3283 10.8858 22.5665 10.8059 22.7619 10.6581C22.9573 10.5104 23.0991 10.3029 23.1659 10.0672C23.2326 9.83152 23.2206 9.58049 23.1316 9.35225C23.0426 9.12402 22.8816 8.93105 22.673 8.80267L12.923 2.80267C12.7457 2.69353 12.5415 2.63574 12.3333 2.63574C12.1251 2.63574 11.921 2.69353 11.7436 2.80267L1.99363 8.80267C1.785 8.93105 1.62398 9.12402 1.53502 9.35225C1.44607 9.58049 1.43403 9.83152 1.50075 10.0672C1.56748 10.3029 1.7093 10.5104 1.90469 10.6581C2.10008 10.8059 2.33835 10.8858 2.58331 10.8858ZM6.70831 10.8858H8.95831V15.3858H6.70831V10.8858ZM13.4583 10.8858V15.3858H11.2083V10.8858H13.4583ZM17.9583 15.3858H15.7083V10.8858H17.9583V15.3858ZM12.3333 5.08174L18.1083 8.6358H6.55831L12.3333 5.08174ZM23.9583 20.2608C23.9583 20.5592 23.8398 20.8453 23.6288 21.0563C23.4178 21.2673 23.1317 21.3858 22.8333 21.3858H1.83331C1.53494 21.3858 1.2488 21.2673 1.03782 21.0563C0.826839 20.8453 0.708313 20.5592 0.708313 20.2608C0.708313 19.9624 0.826839 19.6763 1.03782 19.4653C1.2488 19.2543 1.53494 19.1358 1.83331 19.1358H22.8333C23.1317 19.1358 23.4178 19.2543 23.6288 19.4653C23.8398 19.6763 23.9583 19.9624 23.9583 20.2608Z" fill="#1A1A1A"/>
</g>
<defs>
<clipPath id="clip0_929_17921">
<rect width="24" height="24" fill="white" transform="translate(0.333313 0.760742)"/>
</clipPath>
</defs>
</svg>
