<svg width="24" height="25" viewBox="0 0 24 25" fill="none" xmlns="http://www.w3.org/2000/svg">
<g clip-path="url(#clip0_929_17917)">
<path d="M21.135 12.0662L12.885 1.56619C12.7797 1.43207 12.6454 1.32363 12.4921 1.24906C12.3387 1.17449 12.1705 1.13574 12 1.13574C11.8295 1.13574 11.6612 1.17449 11.5079 1.24906C11.3546 1.32363 11.2202 1.43207 11.115 1.56619L2.86499 12.0662C2.70943 12.2643 2.62488 12.509 2.62488 12.7609C2.62488 13.0128 2.70943 13.2574 2.86499 13.4556L2.92124 13.5268C2.93328 13.5456 2.94709 13.5632 2.96249 13.5793L11.1187 23.9556C11.224 24.0897 11.3584 24.1981 11.5117 24.2727C11.665 24.3473 11.8332 24.386 12.0037 24.386C12.1742 24.386 12.3425 24.3473 12.4958 24.2727C12.6491 24.1981 12.7835 24.0897 12.8887 23.9556L21.1387 13.4556C21.2938 13.257 21.3776 13.0121 21.377 12.7602C21.3763 12.5083 21.2911 12.2639 21.135 12.0662ZM13.125 5.514L18.48 12.3296L13.125 14.7671V5.514ZM10.875 14.7634L5.51999 12.3259L10.875 5.514V14.7634ZM10.875 17.2356V20.0078L7.48592 15.6953L10.875 17.2356ZM13.125 17.2356L16.514 15.6953L13.125 20.0078V17.2356Z" fill="#1A1A1A"/>
</g>
<defs>
<clipPath id="clip0_929_17917">
<rect width="24" height="24" fill="white" transform="translate(0 0.760742)"/>
</clipPath>
</defs>
</svg>
