<svg width="24" height="25" viewBox="0 0 24 25" fill="none" xmlns="http://www.w3.org/2000/svg">
<path d="M12.0008 11.2615C12.2974 11.2615 12.5874 11.3495 12.8341 11.5143C13.0808 11.6791 13.273 11.9134 13.3866 12.1875C13.5001 12.4616 13.5298 12.7632 13.4719 13.0542C13.4141 13.3451 13.2712 13.6124 13.0614 13.8222C12.8516 14.032 12.5844 14.1748 12.2934 14.2327C12.0024 14.2906 11.7008 14.2609 11.4267 14.1473C11.1526 14.0338 10.9184 13.8416 10.7536 13.5949C10.5887 13.3482 10.5008 13.0582 10.5008 12.7615C10.5008 12.3637 10.6588 11.9822 10.9401 11.7009C11.2214 11.4196 11.6029 11.2615 12.0008 11.2615ZM9.00076 12.7615C9.00076 12.4632 8.88223 12.177 8.67125 11.966C8.46028 11.7551 8.17413 11.6365 7.87576 11.6365H4.16982C4.45542 9.63209 5.50313 7.81505 7.09482 6.56372L8.94263 9.76153C9.015 9.8923 9.11271 10.0073 9.23004 10.0999C9.34737 10.1925 9.48198 10.2608 9.62599 10.3008C9.77001 10.3408 9.92055 10.3517 10.0688 10.3328C10.2171 10.314 10.3601 10.2658 10.4896 10.191C10.619 10.1163 10.7322 10.0165 10.8227 9.89749C10.9131 9.77849 10.9789 9.64266 11.0163 9.49794C11.0536 9.35322 11.0618 9.20251 11.0402 9.05461C11.0187 8.9067 10.9679 8.76458 10.8908 8.63653L8.82826 5.07403C8.69798 4.84812 8.522 4.65187 8.31157 4.49782C8.10115 4.34378 7.8609 4.23532 7.60618 4.17938C7.35147 4.12345 7.08788 4.12126 6.83227 4.17296C6.57666 4.22466 6.33465 4.32912 6.1217 4.47965C4.92406 5.32411 3.92429 6.4188 3.19163 7.68791C2.45898 8.95703 2.01095 10.3702 1.87857 11.8297C1.85525 12.0915 1.88663 12.3553 1.97071 12.6043C2.0548 12.8533 2.18975 13.0821 2.36701 13.2762C2.54264 13.4685 2.75638 13.622 2.99462 13.7271C3.23286 13.8322 3.49038 13.8865 3.75076 13.8865H7.87576C8.17413 13.8865 8.46028 13.768 8.67125 13.557C8.88223 13.346 9.00076 13.0599 9.00076 12.7615ZM22.1183 11.8297C21.986 10.3703 21.538 8.95722 20.8053 7.68824C20.0727 6.41926 19.0728 5.32476 17.8751 4.48059C17.6622 4.33002 17.4203 4.22551 17.1647 4.17374C16.9091 4.12196 16.6456 4.12407 16.3909 4.17992C16.1362 4.23576 15.8959 4.34413 15.6854 4.49808C15.475 4.65203 15.2989 4.84819 15.1686 5.07403L13.1108 8.63653C12.968 8.89448 12.9322 9.19816 13.0111 9.48223C13.09 9.7663 13.2772 10.0081 13.5325 10.1555C13.7878 10.3029 14.0908 10.3442 14.3762 10.2706C14.6617 10.1969 14.9068 10.0141 15.0589 9.76153L16.9067 6.56184C18.4988 7.81363 19.5466 9.63142 19.8317 11.6365H16.1258C15.8274 11.6365 15.5412 11.7551 15.3303 11.966C15.1193 12.177 15.0008 12.4632 15.0008 12.7615C15.0008 13.0599 15.1193 13.346 15.3303 13.557C15.5412 13.768 15.8274 13.8865 16.1258 13.8865H20.2508C20.5104 13.8858 20.767 13.8312 21.0044 13.7261C21.2417 13.6211 21.4547 13.4679 21.6298 13.2762C21.8071 13.0821 21.942 12.8533 22.0261 12.6043C22.1102 12.3553 22.1416 12.0915 22.1183 11.8297ZM15.0383 15.7718C14.8891 15.5134 14.6433 15.3248 14.3551 15.2475C14.0668 15.1702 13.7597 15.2106 13.5012 15.3598C13.2428 15.509 13.0542 15.7547 12.9769 16.043C12.8996 16.3312 12.94 16.6384 13.0892 16.8968L14.9248 20.074C13.0471 20.8215 10.9544 20.8215 9.0767 20.074L10.9123 16.895C11.0615 16.6365 11.1019 16.3294 11.0246 16.0411C10.9474 15.7529 10.7588 15.5071 10.5003 15.3579C10.2418 15.2088 9.93469 15.1684 9.64644 15.2456C9.35819 15.3229 9.11244 15.5115 8.96326 15.77L6.91763 19.3137C6.78738 19.5392 6.70553 19.7894 6.6773 20.0483C6.64906 20.3071 6.67507 20.5691 6.75365 20.8173C6.83224 21.0656 6.96168 21.2948 7.13373 21.4903C7.30578 21.6858 7.51666 21.8433 7.75295 21.9528C9.0849 22.5667 10.5341 22.8846 12.0008 22.8846C13.4674 22.8846 14.9166 22.5667 16.2486 21.9528C16.4849 21.8433 16.6957 21.6858 16.8678 21.4903C17.0398 21.2948 17.1693 21.0656 17.2479 20.8173C17.3265 20.5691 17.3525 20.3071 17.3242 20.0483C17.296 19.7894 17.2141 19.5392 17.0839 19.3137L15.0383 15.7718Z" fill="#1A1A1A"/>
</svg>
