<svg width="25" height="25" viewBox="0 0 25 25" fill="none" xmlns="http://www.w3.org/2000/svg">
<path d="M22.3586 5.12473C22.2238 5.01964 22.067 4.94662 21.8998 4.91121C21.7327 4.8758 21.5596 4.87893 21.3939 4.92035L15.7979 6.3191L10.1729 3.5066C9.93267 3.38639 9.65732 3.35613 9.39669 3.42129L3.39669 4.92129C3.15294 4.98155 2.93636 5.12162 2.78142 5.3192C2.62648 5.51678 2.54209 5.76052 2.54169 6.0116V19.5116C2.54171 19.6825 2.5807 19.8512 2.65567 20.0049C2.73065 20.1585 2.83965 20.293 2.9744 20.3982C3.10915 20.5034 3.26609 20.5765 3.43332 20.612C3.60055 20.6474 3.77366 20.6443 3.9395 20.6029L9.53544 19.2041L15.1604 22.0166C15.4007 22.1368 15.6761 22.1671 15.9367 22.1019L21.9367 20.6019C22.1804 20.5417 22.397 20.4016 22.552 20.204C22.7069 20.0064 22.7913 19.7627 22.7917 19.5116V6.0116C22.7917 5.84058 22.7526 5.67181 22.6776 5.51813C22.6025 5.36445 22.4934 5.22991 22.3586 5.12473ZM10.7917 6.33223L14.5417 8.20723V19.191L10.7917 17.316V6.33223ZM4.79169 6.89473L8.54169 5.95723V17.1332L4.79169 18.0707V6.89473ZM20.5417 18.6332L16.7917 19.5707V8.39004L20.5417 7.45254V18.6332Z" fill="#1A1A1A"/>
</svg>
