<svg width="24" height="24" viewBox="0 0 24 24" fill="none" xmlns="http://www.w3.org/2000/svg">
<path d="M19.6284 5.65031C17.6325 4.65188 15 4.125 12 4.125C9 4.125 6.3675 4.65188 4.37156 5.65031C2.30813 6.68156 1.125 8.17594 1.125 9.75V14.25C1.125 15.8241 2.30813 17.3184 4.37156 18.3497C6.3675 19.3481 9.00469 19.875 12 19.875C14.9953 19.875 17.6325 19.3481 19.6284 18.3497C21.6909 17.3184 22.875 15.8241 22.875 14.25V9.75C22.875 8.17594 21.6919 6.68156 19.6284 5.65031ZM5.37844 7.66219C7.03875 6.8325 9.39 6.375 12 6.375C14.61 6.375 16.9613 6.8325 18.6216 7.66219C19.8572 8.28 20.625 9.08063 20.625 9.75C20.625 10.4194 19.8572 11.22 18.6216 11.8378C16.9613 12.6675 14.61 13.125 12 13.125C9.39 13.125 7.03875 12.6675 5.37844 11.8378C4.14281 11.22 3.375 10.4194 3.375 9.75C3.375 9.08063 4.14281 8.28 5.37844 7.66219ZM16.875 17.0044C15.6511 17.3414 14.3932 17.5395 13.125 17.595V15.345C14.3887 15.2934 15.6445 15.1205 16.875 14.8284V17.0044ZM7.125 14.8331C8.35555 15.1251 9.61133 15.2981 10.875 15.3497V17.5997C9.60679 17.5442 8.34887 17.3461 7.125 17.0091V14.8331ZM3.375 14.25V13.2694C3.69424 13.4842 4.02713 13.6781 4.37156 13.8497C4.53469 13.9312 4.70344 14.0091 4.875 14.0841V16.0594C3.9375 15.4913 3.375 14.8228 3.375 14.25ZM19.125 16.0594V14.0841C19.2966 14.0091 19.4653 13.9312 19.6284 13.8497C19.9729 13.6781 20.3058 13.4842 20.625 13.2694V14.25C20.625 14.8228 20.0625 15.4913 19.125 16.0594Z" fill="black"/>
</svg>
