<svg width="24" height="24" viewBox="0 0 24 24" fill="none" xmlns="http://www.w3.org/2000/svg">
<path d="M8.625 8.625C8.625 8.32663 8.74353 8.04048 8.9545 7.8295C9.16548 7.61853 9.45163 7.5 9.75 7.5H15.375C15.6734 7.5 15.9595 7.61853 16.1705 7.8295C16.3815 8.04048 16.5 8.32663 16.5 8.625C16.5 8.92337 16.3815 9.20952 16.1705 9.4205C15.9595 9.63147 15.6734 9.75 15.375 9.75H9.75C9.45163 9.75 9.16548 9.63147 8.9545 9.4205C8.74353 9.20952 8.625 8.92337 8.625 8.625ZM9.75 13.5H15.375C15.6734 13.5 15.9595 13.3815 16.1705 13.1705C16.3815 12.9595 16.5 12.6734 16.5 12.375C16.5 12.0766 16.3815 11.7905 16.1705 11.5795C15.9595 11.3685 15.6734 11.25 15.375 11.25H9.75C9.45163 11.25 9.16548 11.3685 8.9545 11.5795C8.74353 11.7905 8.625 12.0766 8.625 12.375C8.625 12.6734 8.74353 12.9595 8.9545 13.1705C9.16548 13.3815 9.45163 13.5 9.75 13.5ZM22.125 18C22.125 18.8951 21.7694 19.7535 21.1365 20.3865C20.5035 21.0194 19.6451 21.375 18.75 21.375H8.25C7.35489 21.375 6.49645 21.0194 5.86351 20.3865C5.23058 19.7535 4.875 18.8951 4.875 18V6C4.875 5.70163 4.75647 5.41548 4.5455 5.2045C4.33452 4.99353 4.04837 4.875 3.75 4.875C3.45163 4.875 3.16548 4.99353 2.9545 5.2045C2.74353 5.41548 2.625 5.70163 2.625 6C2.625 6.34969 2.93906 6.61031 2.94187 6.61313L2.925 6.6C3.04881 6.6864 3.15396 6.79683 3.23419 6.92471C3.31442 7.0526 3.36809 7.19533 3.39201 7.34439C3.41592 7.49346 3.40958 7.64581 3.37338 7.79238C3.33717 7.93894 3.27184 8.07672 3.18126 8.19751C3.09069 8.31829 2.97673 8.41961 2.84618 8.49543C2.71563 8.57124 2.57115 8.62001 2.42136 8.63882C2.27156 8.65762 2.11951 8.64609 1.97427 8.6049C1.82903 8.56371 1.69356 8.49371 1.57594 8.39906C1.45219 8.30812 0.375 7.45781 0.375 6C0.375 5.10489 0.730579 4.24645 1.36351 3.61351C1.99645 2.98058 2.85489 2.625 3.75 2.625H16.5C17.3951 2.625 18.2535 2.98058 18.8865 3.61351C19.5194 4.24645 19.875 5.10489 19.875 6V15.375H20.25C20.4934 15.375 20.7303 15.4539 20.925 15.6C21.0478 15.6919 22.125 16.5422 22.125 18ZM8.68313 16.1437C8.75786 15.9199 8.90109 15.7252 9.09255 15.5873C9.28401 15.4493 9.51401 15.375 9.75 15.375H17.625V6C17.625 5.70163 17.5065 5.41548 17.2955 5.2045C17.0845 4.99353 16.7984 4.875 16.5 4.875H6.93188C7.05987 5.23626 7.12519 5.61674 7.125 6V18C7.125 18.2984 7.24353 18.5845 7.4545 18.7955C7.66548 19.0065 7.95163 19.125 8.25 19.125C8.54837 19.125 8.83452 19.0065 9.0455 18.7955C9.25647 18.5845 9.375 18.2984 9.375 18C9.375 17.6644 9.07781 17.4019 9.075 17.4C8.88608 17.2582 8.74656 17.0606 8.67622 16.8351C8.60589 16.6097 8.6083 16.3678 8.68313 16.1437ZM19.875 18C19.8717 17.8667 19.8314 17.7368 19.7587 17.625H11.6025C11.6189 17.7493 11.627 17.8746 11.6269 18C11.6271 18.3833 11.5618 18.7638 11.4338 19.125H18.75C19.0484 19.125 19.3345 19.0065 19.5455 18.7955C19.7565 18.5845 19.875 18.2984 19.875 18Z" fill="#1A1A1A"/>
</svg>
