<svg width="19" height="18" viewBox="0 0 19 18" fill="none" xmlns="http://www.w3.org/2000/svg">
<path d="M14.8325 4.5V11.8125C14.8325 11.9617 14.7732 12.1048 14.6677 12.2102C14.5622 12.3157 14.4192 12.375 14.27 12.375C14.1208 12.375 13.9777 12.3157 13.8722 12.2102C13.7667 12.1048 13.7075 11.9617 13.7075 11.8125V5.85773L5.66794 13.898C5.56239 14.0035 5.41923 14.0628 5.26997 14.0628C5.1207 14.0628 4.97755 14.0035 4.872 13.898C4.76645 13.7924 4.70715 13.6493 4.70715 13.5C4.70715 13.3507 4.76645 13.2076 4.872 13.102L12.9122 5.0625H6.95747C6.80828 5.0625 6.66521 5.00324 6.55972 4.89775C6.45423 4.79226 6.39497 4.64918 6.39497 4.5C6.39497 4.35082 6.45423 4.20774 6.55972 4.10225C6.66521 3.99676 6.80828 3.9375 6.95747 3.9375H14.27C14.4192 3.9375 14.5622 3.99676 14.6677 4.10225C14.7732 4.20774 14.8325 4.35082 14.8325 4.5Z" fill="black"/>
</svg>
