<svg width="24" height="25" viewBox="0 0 24 25" fill="none" xmlns="http://www.w3.org/2000/svg">
<path d="M20.7806 12.7918L14.0306 19.5418C13.8899 19.6825 13.699 19.7616 13.5 19.7616C13.301 19.7616 13.1101 19.6825 12.9694 19.5418C12.8286 19.4011 12.7496 19.2102 12.7496 19.0112C12.7496 18.8121 12.8286 18.6213 12.9694 18.4805L18.4397 13.0112H3.75C3.55109 13.0112 3.36032 12.9321 3.21967 12.7915C3.07902 12.6508 3 12.4601 3 12.2612C3 12.0622 3.07902 11.8715 3.21967 11.7308C3.36032 11.5902 3.55109 11.5112 3.75 11.5112H18.4397L12.9694 6.04178C12.8286 5.90105 12.7496 5.71018 12.7496 5.51116C12.7496 5.31214 12.8286 5.12126 12.9694 4.98053C13.1101 4.8398 13.301 4.76074 13.5 4.76074C13.699 4.76074 13.8899 4.8398 14.0306 4.98053L20.7806 11.7305C20.8504 11.8002 20.9057 11.8829 20.9434 11.974C20.9812 12.065 21.0006 12.1626 21.0006 12.2612C21.0006 12.3597 20.9812 12.4573 20.9434 12.5484C20.9057 12.6394 20.8504 12.7221 20.7806 12.7918Z" fill="#12FF80"/>
</svg>
