<svg width="24" height="25" viewBox="0 0 24 25" fill="none" xmlns="http://www.w3.org/2000/svg">
<path d="M21.0459 13.2959L14.2959 20.0459C14.0846 20.2572 13.7979 20.3759 13.4991 20.3759C13.2002 20.3759 12.9135 20.2572 12.7022 20.0459C12.4908 19.8345 12.3721 19.5479 12.3721 19.249C12.3721 18.9501 12.4908 18.6635 12.7022 18.4521L17.5312 13.6249H3.75C3.45163 13.6249 3.16548 13.5064 2.9545 13.2954C2.74353 13.0844 2.625 12.7983 2.625 12.4999C2.625 12.2016 2.74353 11.9154 2.9545 11.7044C3.16548 11.4934 3.45163 11.3749 3.75 11.3749H17.5312L12.7041 6.54492C12.4927 6.33358 12.374 6.04693 12.374 5.74804C12.374 5.44916 12.4927 5.16251 12.7041 4.95117C12.9154 4.73983 13.2021 4.62109 13.5009 4.62109C13.7998 4.62109 14.0865 4.73983 14.2978 4.95117L21.0478 11.7012C21.1527 11.8058 21.2359 11.9302 21.2926 12.0671C21.3493 12.204 21.3784 12.3507 21.3782 12.4989C21.3781 12.6471 21.3486 12.7938 21.2916 12.9305C21.2346 13.0673 21.1511 13.1914 21.0459 13.2959Z" fill="black"/>
</svg>
