<svg width="20" height="20" viewBox="0 0 20 20" fill="none" xmlns="http://www.w3.org/2000/svg">
<path d="M17.9425 6.06656L7.94254 16.0666C7.88449 16.1247 7.81556 16.1708 7.73969 16.2022C7.66381 16.2337 7.58248 16.2499 7.50035 16.2499C7.41821 16.2499 7.33688 16.2337 7.26101 16.2022C7.18514 16.1708 7.11621 16.1247 7.05816 16.0666L2.68316 11.6916C2.56588 11.5743 2.5 11.4152 2.5 11.2494C2.5 11.0835 2.56588 10.9245 2.68316 10.8072C2.80044 10.6899 2.9595 10.624 3.12535 10.624C3.2912 10.624 3.45026 10.6899 3.56753 10.8072L7.50035 14.7408L17.0582 5.18218C17.1754 5.06491 17.3345 4.99902 17.5003 4.99902C17.6662 4.99902 17.8253 5.06491 17.9425 5.18218C18.0598 5.29946 18.1257 5.45852 18.1257 5.62437C18.1257 5.79022 18.0598 5.94928 17.9425 6.06656Z" fill="#1A1A1A" fill-opacity="0.6"/>
</svg>
