<svg width="18" height="19" viewBox="0 0 18 19" fill="none" xmlns="http://www.w3.org/2000/svg">
<path d="M15.0229 7.64828L9.39792 13.2733C9.34567 13.3256 9.28364 13.3671 9.21535 13.3954C9.14706 13.4237 9.07387 13.4383 8.99995 13.4383C8.92603 13.4383 8.85283 13.4237 8.78454 13.3954C8.71626 13.3671 8.65422 13.3256 8.60198 13.2733L2.97698 7.64828C2.87143 7.54273 2.81213 7.39958 2.81213 7.25031C2.81213 7.10105 2.87143 6.95789 2.97698 6.85234C3.08253 6.7468 3.22568 6.6875 3.37495 6.6875C3.52421 6.6875 3.66737 6.7468 3.77292 6.85234L8.99995 12.0801L14.227 6.85234C14.2792 6.80008 14.3413 6.75863 14.4096 6.73034C14.4779 6.70206 14.551 6.6875 14.6249 6.6875C14.6989 6.6875 14.772 6.70206 14.8403 6.73034C14.9086 6.75863 14.9707 6.80008 15.0229 6.85234C15.0752 6.90461 15.1166 6.96665 15.1449 7.03493C15.1732 7.10322 15.1878 7.1764 15.1878 7.25031C15.1878 7.32422 15.1732 7.39741 15.1449 7.46569C15.1166 7.53398 15.0752 7.59602 15.0229 7.64828Z" fill="black"/>
</svg>
