<svg width="24" height="24" viewBox="0 0 24 24" fill="none" xmlns="http://www.w3.org/2000/svg">
<path d="M20.671 17.8904C20.7759 17.9949 20.8591 18.1191 20.9159 18.2558C20.9727 18.3926 21.0019 18.5392 21.0019 18.6872C21.0019 18.8353 20.9727 18.9819 20.9159 19.1187C20.8591 19.2554 20.7759 19.3796 20.671 19.4841L19.4813 20.671C19.3768 20.7759 19.2526 20.8591 19.1159 20.9159C18.9791 20.9727 18.8325 21.0019 18.6844 21.0019C18.5364 21.0019 18.3898 20.9727 18.253 20.9159C18.1163 20.8591 17.9921 20.7759 17.8876 20.671L12.5851 15.3676L10.7813 20.071C10.7813 20.0804 10.7738 20.0907 10.7691 20.101C10.6543 20.3686 10.4634 20.5965 10.22 20.7564C9.9766 20.9163 9.69156 21.001 9.40037 21.0001H9.32631C9.02263 20.9872 8.73021 20.8814 8.4886 20.697C8.24699 20.5125 8.06784 20.2584 7.97537 19.9688L3.07506 4.96131C2.99094 4.69885 2.98076 4.41828 3.04563 4.15041C3.11051 3.88253 3.24794 3.63772 3.44283 3.44283C3.63772 3.24794 3.88253 3.11051 4.15041 3.04563C4.41828 2.98076 4.69885 2.99094 4.96131 3.07506L19.9688 7.97537C20.2556 8.07132 20.5068 8.25174 20.6892 8.49295C20.8717 8.73415 20.977 9.02489 20.9913 9.327C21.0056 9.62911 20.9282 9.92848 20.7693 10.1858C20.6104 10.4432 20.3775 10.6465 20.101 10.7691L20.071 10.7813L15.3676 12.5879L20.671 17.8904ZM9.00006 3.00006C9.19897 3.00006 9.38974 2.92104 9.53039 2.78039C9.67104 2.63974 9.75006 2.44897 9.75006 2.25006V1.50006C9.75006 1.30115 9.67104 1.11038 9.53039 0.969732C9.38974 0.829079 9.19897 0.750062 9.00006 0.750062C8.80115 0.750062 8.61038 0.829079 8.46973 0.969732C8.32908 1.11038 8.25006 1.30115 8.25006 1.50006V2.25006C8.25006 2.44897 8.32908 2.63974 8.46973 2.78039C8.61038 2.92104 8.80115 3.00006 9.00006 3.00006ZM1.50006 9.75006H2.25006C2.44897 9.75006 2.63974 9.67104 2.78039 9.53039C2.92104 9.38974 3.00006 9.19897 3.00006 9.00006C3.00006 8.80115 2.92104 8.61038 2.78039 8.46973C2.63974 8.32908 2.44897 8.25006 2.25006 8.25006H1.50006C1.30115 8.25006 1.11038 8.32908 0.969732 8.46973C0.829079 8.61038 0.750062 8.80115 0.750062 9.00006C0.750062 9.19897 0.829079 9.38974 0.969732 9.53039C1.11038 9.67104 1.30115 9.75006 1.50006 9.75006ZM11.6644 3.67131C11.7526 3.71545 11.8485 3.74178 11.9469 3.7488C12.0452 3.75582 12.1439 3.74339 12.2374 3.71222C12.331 3.68105 12.4174 3.63175 12.4919 3.56714C12.5663 3.50253 12.6273 3.42388 12.6713 3.33569L13.4213 1.83569C13.5103 1.65778 13.525 1.45181 13.4622 1.26307C13.3993 1.07433 13.2641 0.918294 13.0862 0.82928C12.9083 0.740267 12.7023 0.725571 12.5135 0.788425C12.3248 0.851279 12.1688 0.986534 12.0798 1.16444L11.3297 2.66444C11.2856 2.75252 11.2592 2.84844 11.2521 2.94672C11.245 3.045 11.2574 3.14372 11.2885 3.23723C11.3195 3.33073 11.3687 3.4172 11.4333 3.49168C11.4978 3.56616 11.5763 3.6272 11.6644 3.67131ZM2.66444 11.3297L1.16444 12.0798C0.986534 12.1688 0.851279 12.3248 0.788425 12.5135C0.725571 12.7023 0.740267 12.9083 0.82928 13.0862C0.918294 13.2641 1.07433 13.3993 1.26307 13.4622C1.45181 13.525 1.65778 13.5103 1.83569 13.4213L3.33569 12.6713C3.42378 12.6272 3.50232 12.5662 3.56684 12.4918C3.63135 12.4174 3.68058 12.331 3.7117 12.2375C3.74282 12.1441 3.75523 12.0454 3.74822 11.9471C3.74121 11.8489 3.71492 11.753 3.67084 11.6649C3.62677 11.5768 3.56577 11.4983 3.49134 11.4338C3.41691 11.3692 3.33051 11.32 3.23705 11.2889C3.1436 11.2578 3.04493 11.2454 2.94668 11.2524C2.84843 11.2594 2.75252 11.2857 2.66444 11.3297Z" fill="#1A1A1A"/>
</svg>
