<svg width="24" height="24" viewBox="0 0 24 24" fill="none" xmlns="http://www.w3.org/2000/svg">
<path d="M18.75 6.75008H15.0187C14.7459 6.73414 9.99188 6.39946 5.46469 2.60258C5.24607 2.41897 4.97959 2.30157 4.69656 2.26416C4.41353 2.22674 4.12571 2.27088 3.86689 2.39138C3.60807 2.51188 3.38902 2.70373 3.23546 2.94441C3.0819 3.18509 3.00022 3.46459 3 3.75008V18.7501C3.00004 19.0357 3.0816 19.3153 3.23508 19.5561C3.38857 19.7969 3.60761 19.9889 3.86646 20.1095C4.12532 20.2301 4.41322 20.2744 4.69633 20.237C4.97945 20.1996 5.24601 20.0822 5.46469 19.8985C9.00563 16.9285 12.6834 16.0773 14.25 15.8391V18.8129C14.2497 19.0601 14.3105 19.3035 14.4269 19.5215C14.5434 19.7395 14.7119 19.9254 14.9175 20.0626L15.9487 20.7498C16.1481 20.8828 16.3764 20.9662 16.6145 20.9928C16.8527 21.0195 17.0938 20.9887 17.3176 20.9031C17.5414 20.8174 17.7414 20.6794 17.901 20.5005C18.0605 20.3217 18.1748 20.1072 18.2344 19.8751L19.3378 15.7163C20.4785 15.5762 21.5224 15.0049 22.2553 14.1197C22.9882 13.2344 23.3546 12.1023 23.2795 10.9555C23.2043 9.80872 22.6932 8.73414 21.8509 7.95217C21.0087 7.1702 19.8992 6.7401 18.75 6.75008ZM16.7812 19.4898V19.5001L15.75 18.8129V15.7501H17.775L16.7812 19.4898ZM18.75 14.2501H15.75V8.25008H18.75C19.5456 8.25008 20.3087 8.56615 20.8713 9.12876C21.4339 9.69137 21.75 10.4544 21.75 11.2501C21.75 12.0457 21.4339 12.8088 20.8713 13.3714C20.3087 13.934 19.5456 14.2501 18.75 14.2501Z" fill="#1A1A1A"/>
</svg>
