<svg width="24" height="24" viewBox="0 0 24 24" fill="none" xmlns="http://www.w3.org/2000/svg">
<path d="M20.3034 3.69649C19.1121 2.50353 17.5536 1.74675 15.8794 1.54826C14.2052 1.34978 12.513 1.72117 11.0758 2.6025C9.63854 3.48384 8.54018 4.82371 7.95793 6.4059C7.37568 7.9881 7.34349 9.72032 7.86657 11.3231L2.6897 16.4999C2.5498 16.6387 2.43889 16.8039 2.36341 16.9859C2.28792 17.168 2.24938 17.3632 2.25001 17.5602V20.2499C2.25001 20.6478 2.40804 21.0293 2.68935 21.3106C2.97065 21.5919 3.35218 21.7499 3.75001 21.7499H6.75001C6.94892 21.7499 7.13969 21.6709 7.28034 21.5303C7.42099 21.3896 7.50001 21.1988 7.50001 20.9999V19.4999H9.00001C9.19892 19.4999 9.38969 19.4209 9.53034 19.2803C9.67099 19.1396 9.75001 18.9488 9.75001 18.7499V17.2499H11.25C11.3485 17.25 11.4461 17.2307 11.5371 17.193C11.6282 17.1554 11.7109 17.1002 11.7806 17.0306L12.6769 16.1334C13.4271 16.3774 14.2111 16.5011 15 16.4999H15.0094C16.492 16.4981 17.9408 16.057 19.1728 15.2321C20.4048 14.4073 21.3646 13.2359 21.9312 11.8658C22.4977 10.4957 22.6454 8.9884 22.3557 7.53438C22.066 6.08036 21.3518 4.74482 20.3034 3.69649ZM16.875 8.62493C16.5783 8.62493 16.2883 8.53696 16.0417 8.37214C15.795 8.20731 15.6027 7.97304 15.4892 7.69896C15.3757 7.42487 15.346 7.12327 15.4038 6.8323C15.4617 6.54132 15.6046 6.27405 15.8143 6.06427C16.0241 5.85449 16.2914 5.71163 16.5824 5.65375C16.8733 5.59588 17.1749 5.62558 17.449 5.73911C17.7231 5.85264 17.9574 6.0449 18.1222 6.29158C18.287 6.53825 18.375 6.82826 18.375 7.12493C18.375 7.52276 18.217 7.90429 17.9357 8.18559C17.6544 8.4669 17.2728 8.62493 16.875 8.62493Z" fill="#1A1A1A"/>
</svg>
