<svg width="18" height="18" viewBox="0 0 18 18" fill="none" xmlns="http://www.w3.org/2000/svg">
<path d="M9 1.6875C7.55373 1.6875 6.13993 2.11637 4.9374 2.91988C3.73486 3.72339 2.7976 4.86544 2.24413 6.20163C1.69067 7.53781 1.54586 9.00812 1.82801 10.4266C2.11017 11.8451 2.80661 13.148 3.82928 14.1707C4.85196 15.1934 6.15492 15.8898 7.57341 16.172C8.99189 16.4541 10.4622 16.3093 11.7984 15.7559C13.1346 15.2024 14.2766 14.2651 15.0801 13.0626C15.8836 11.8601 16.3125 10.4463 16.3125 9C16.3125 7.06066 15.5421 5.20082 14.1707 3.82928C12.7992 2.45774 10.9393 1.6875 9 1.6875ZM9 15.1875C7.77623 15.1875 6.57994 14.8247 5.56241 14.1449C4.54488 13.4651 3.75121 12.4989 3.28323 11.3681C2.81524 10.2372 2.69392 8.99314 2.93505 7.79288C3.17618 6.59262 3.76886 5.49105 4.63496 4.62496C5.50105 3.75886 6.60262 3.16618 7.80288 2.92505C9.00314 2.68392 10.2472 2.80524 11.3781 3.27323C12.5089 3.74121 13.4751 4.53488 14.1549 5.55241C14.8347 6.56994 15.1875 7.77623 15.1875 9C15.1875 10.6408 14.5356 12.2142 13.365 13.365C12.2142 14.5356 10.6408 15.1875 9 15.1875ZM9.5625 8.4375V12.375C9.5625 12.5242 9.50324 12.6673 9.39775 12.7727C9.29226 12.8782 9.14918 12.9375 9 12.9375C8.85082 12.9375 8.70774 12.8782 8.60225 12.7727C8.49676 12.6673 8.4375 12.5242 8.4375 12.375V8.4375C8.4375 8.28832 8.49676 8.14524 8.60225 8.03975C8.70774 7.93426 8.85082 7.875 9 7.875C9.14918 7.875 9.29226 7.93426 9.39775 8.03975C9.50324 8.14524 9.5625 8.28832 9.5625 8.4375ZM9.84375 6.1875C9.84375 6.35438 9.79424 6.51751 9.70135 6.65626C9.60847 6.79501 9.47637 6.90311 9.32254 6.96676C9.16872 7.03041 8.99969 7.04688 8.83668 7.01394C8.67368 6.98101 8.52415 6.90015 8.40575 6.78175C8.28735 6.66335 8.20649 6.51382 8.17356 6.35082C8.14062 6.18781 8.15709 6.01878 8.22074 5.86496C8.28439 5.71113 8.39249 5.57903 8.53124 5.48615C8.66999 5.39326 8.83312 5.34375 9 5.34375C9.22378 5.34375 9.43839 5.43264 9.59425 5.58825C9.75011 5.74386 9.84375 5.96101 9.84375 6.1875Z" fill="#1A1A1A"/>
</svg>
