<svg width="18" height="18" viewBox="0 0 18 18" fill="none" xmlns="http://www.w3.org/2000/svg">
<path d="M6.75 7.3125C6.75 7.16332 6.80926 7.02024 6.91475 6.91475C7.02024 6.80926 7.16332 6.75 7.3125 6.75H11.8125C11.9617 6.75 12.1048 6.80926 12.2102 6.91475C12.3157 7.02024 12.375 7.16332 12.375 7.3125C12.375 7.46168 12.3157 7.60476 12.2102 7.71025C12.1048 7.81574 11.9617 7.875 11.8125 7.875H7.3125C7.16332 7.875 7.02024 7.81574 6.91475 7.71025C6.80926 7.60476 6.75 7.46168 6.75 7.3125ZM7.3125 10.125H11.8125C11.9617 10.125 12.1048 10.0657 12.2102 9.96025C12.3157 9.85476 12.375 9.71168 12.375 9.5625C12.375 9.41332 12.3157 9.27024 12.2102 9.16475C12.1048 9.05926 11.9617 9 11.8125 9H7.3125C7.16332 9 7.02024 9.05926 6.91475 9.16475C6.80926 9.27024 6.75 9.41332 6.75 9.5625C6.75 9.71168 6.80926 9.85476 6.91475 9.96025C7.02024 10.0657 7.16332 10.125 7.3125 10.125ZM16.3125 13.5C16.3125 14.0967 16.0754 14.669 15.6535 15.091C15.2315 15.5129 14.6592 15.75 14.0625 15.75H6.1875C5.59076 15.75 5.01847 15.5129 4.59651 15.091C4.17455 14.669 3.9375 14.0967 3.9375 13.5V4.5C3.9375 4.20163 3.81897 3.91548 3.608 3.7045C3.39702 3.49353 3.11087 3.375 2.8125 3.375C2.51413 3.375 2.22798 3.49353 2.017 3.7045C1.80603 3.91548 1.6875 4.20163 1.6875 4.5C1.6875 4.90359 2.02711 5.17641 2.03062 5.17922C2.12372 5.25086 2.19205 5.34985 2.22603 5.4623C2.26001 5.57475 2.25793 5.69501 2.22008 5.80622C2.18224 5.91742 2.11053 6.01399 2.01501 6.08237C1.9195 6.15075 1.80497 6.18752 1.6875 6.1875C1.56586 6.18771 1.44752 6.14793 1.3507 6.0743C1.26914 6.01453 0.5625 5.45695 0.5625 4.5C0.5625 3.90326 0.799553 3.33097 1.22151 2.90901C1.64347 2.48705 2.21576 2.25 2.8125 2.25H12.375C12.9717 2.25 13.544 2.48705 13.966 2.90901C14.3879 3.33097 14.625 3.90326 14.625 4.5V11.8125H15.1875C15.3092 11.8125 15.4276 11.852 15.525 11.925C15.6094 11.9855 16.3125 12.543 16.3125 13.5ZM6.76828 12.1978C6.80672 12.0844 6.88006 11.986 6.97782 11.9168C7.07558 11.8476 7.19273 11.8111 7.3125 11.8125H13.5V4.5C13.5 4.20163 13.3815 3.91548 13.1705 3.7045C12.9595 3.49353 12.6734 3.375 12.375 3.375H4.75945C4.9584 3.71651 5.06298 4.10477 5.0625 4.5V13.5C5.0625 13.7984 5.18103 14.0845 5.392 14.2955C5.60298 14.5065 5.88913 14.625 6.1875 14.625C6.48587 14.625 6.77202 14.5065 6.983 14.2955C7.19397 14.0845 7.3125 13.7984 7.3125 13.5C7.3125 13.0964 6.97289 12.8236 6.96938 12.8208C6.87351 12.7522 6.80222 12.6546 6.76602 12.5425C6.72981 12.4303 6.73061 12.3095 6.76828 12.1978ZM15.1875 13.5C15.1805 13.2916 15.1 13.0924 14.9604 12.9375H8.35102C8.40755 13.1196 8.43623 13.3093 8.43609 13.5C8.43663 13.8951 8.33256 14.2832 8.13445 14.625H14.0625C14.3609 14.625 14.647 14.5065 14.858 14.2955C15.069 14.0845 15.1875 13.7984 15.1875 13.5Z" fill="#1A1A1A"/>
</svg>
