<svg width="18" height="18" viewBox="0 0 18 18" fill="none" xmlns="http://www.w3.org/2000/svg">
<path d="M1.6875 7.31215H3.375V11.8122H2.25C2.10082 11.8122 1.95774 11.8714 1.85225 11.9769C1.74676 12.0824 1.6875 12.2255 1.6875 12.3747C1.6875 12.5238 1.74676 12.6669 1.85225 12.7724C1.95774 12.8779 2.10082 12.9372 2.25 12.9372H15.75C15.8992 12.9372 16.0423 12.8779 16.1477 12.7724C16.2532 12.6669 16.3125 12.5238 16.3125 12.3747C16.3125 12.2255 16.2532 12.0824 16.1477 11.9769C16.0423 11.8714 15.8992 11.8122 15.75 11.8122H14.625V7.31215H16.3125C16.4349 7.31203 16.5539 7.27199 16.6515 7.19811C16.7491 7.12423 16.8199 7.02055 16.8532 6.90278C16.8865 6.78501 16.8805 6.65959 16.8361 6.54555C16.7917 6.4315 16.7113 6.33505 16.6071 6.27082L9.29461 1.77082C9.206 1.71634 9.10402 1.6875 9 1.6875C8.89598 1.6875 8.794 1.71634 8.70539 1.77082L1.39289 6.27082C1.28871 6.33505 1.20831 6.4315 1.1639 6.54555C1.11949 6.65959 1.11349 6.78501 1.14681 6.90278C1.18013 7.02055 1.25095 7.12423 1.34853 7.19811C1.4461 7.27199 1.56511 7.31203 1.6875 7.31215ZM4.5 7.31215H6.75V11.8122H4.5V7.31215ZM10.125 7.31215V11.8122H7.875V7.31215H10.125ZM13.5 11.8122H11.25V7.31215H13.5V11.8122ZM9 2.90988L14.3255 6.18715H3.67453L9 2.90988ZM17.4375 14.6247C17.4375 14.7738 17.3782 14.9169 17.2727 15.0224C17.1673 15.1279 17.0242 15.1872 16.875 15.1872H1.125C0.975816 15.1872 0.832742 15.1279 0.727252 15.0224C0.621763 14.9169 0.5625 14.7738 0.5625 14.6247C0.5625 14.4755 0.621763 14.3324 0.727252 14.2269C0.832742 14.1214 0.975816 14.0622 1.125 14.0622H16.875C17.0242 14.0622 17.1673 14.1214 17.2727 14.2269C17.3782 14.3324 17.4375 14.4755 17.4375 14.6247Z" fill="#1A1A1A"/>
</svg>
