<svg width="18" height="18" viewBox="0 0 18 18" fill="none" xmlns="http://www.w3.org/2000/svg">
<path d="M16.0692 6.09188L3.69 2.295C3.52245 2.24613 3.34583 2.23692 3.1741 2.26808C3.00237 2.29925 2.84025 2.36995 2.70056 2.47458C2.56087 2.57921 2.44744 2.71491 2.36924 2.87094C2.29104 3.02697 2.25022 3.19906 2.25 3.37359V13.4986C2.25 13.797 2.36853 14.0831 2.5795 14.2941C2.79048 14.5051 3.07663 14.6236 3.375 14.6236C3.48258 14.6236 3.58961 14.6082 3.69281 14.5779L9.5625 12.7765V13.4986C9.5625 13.797 9.68103 14.0831 9.892 14.2941C10.103 14.5051 10.3891 14.6236 10.6875 14.6236H12.9375C13.2359 14.6236 13.522 14.5051 13.733 14.2941C13.944 14.0831 14.0625 13.797 14.0625 13.4986V11.3963L16.0692 10.781C16.3015 10.7112 16.5052 10.5687 16.6502 10.3743C16.7953 10.18 16.8741 9.94422 16.875 9.70172V7.17047C16.874 6.92808 16.7951 6.69244 16.65 6.49826C16.505 6.30408 16.3014 6.16162 16.0692 6.09188ZM9.5625 11.6002L3.375 13.4986V3.37359L9.5625 5.27203V11.6002ZM12.9375 13.4986H10.6875V12.4313L12.9375 11.7408V13.4986ZM15.75 9.70172H15.7423L10.6875 11.2542V5.61797L15.7423 7.16484H15.75V9.69609V9.70172Z" fill="#1A1A1A"/>
</svg>
