<svg width="18" height="18" viewBox="0 0 18 18" fill="none" xmlns="http://www.w3.org/2000/svg">
<path d="M14.5955 4.48875C13.1379 3.76031 11.2029 3.375 9 3.375C6.79711 3.375 4.86211 3.76031 3.40453 4.48875C1.94695 5.21719 1.125 6.24234 1.125 7.3125V10.6875C1.125 11.7577 1.95609 12.7863 3.40453 13.5113C4.85297 14.2362 6.79711 14.625 9 14.625C11.2029 14.625 13.1379 14.2397 14.5955 13.5113C16.053 12.7828 16.875 11.7577 16.875 10.6875V7.3125C16.875 6.24234 16.0439 5.21367 14.5955 4.48875ZM9 4.5C13.4044 4.5 15.75 6.13336 15.75 7.3125C15.75 8.49164 13.4044 10.125 9 10.125C4.59562 10.125 2.25 8.49164 2.25 7.3125C2.25 6.13336 4.59562 4.5 9 4.5ZM8.4375 11.2402V13.4902C7.10156 13.4466 5.97656 13.2497 5.0625 12.9635V10.7613C6.16439 11.0549 7.29744 11.2156 8.4375 11.2402ZM9.5625 11.2402C10.7026 11.2156 11.8356 11.0549 12.9375 10.7613V12.9628C12.0234 13.249 10.8984 13.4459 9.5625 13.4895V11.2402ZM2.25 10.6875V9.38883C2.60399 9.68267 2.99153 9.93356 3.40453 10.1363C3.57539 10.2213 3.75609 10.3015 3.9375 10.3774V12.5156C2.82445 11.9644 2.25 11.2704 2.25 10.6875ZM14.0625 12.5156V10.3774C14.246 10.3015 14.4246 10.2213 14.5955 10.1363C15.0085 9.93356 15.396 9.68267 15.75 9.38883V10.6875C15.75 11.2704 15.1755 11.9644 14.0625 12.5156Z" fill="#1A1A1A"/>
</svg>
