<svg width="18" height="18" viewBox="0 0 18 18" fill="none" xmlns="http://www.w3.org/2000/svg">
<path d="M16.1719 8.6332C14.6953 5.85117 12.0234 4.21875 9 4.21875C5.97656 4.21875 3.30469 5.85117 1.82812 8.6332C1.77321 8.73695 1.74454 8.85272 1.74454 8.97012C1.74454 9.08753 1.77321 9.2033 1.82812 9.30703C3.30469 12.0891 5.97656 13.7215 9 13.7215C12.0234 13.7215 14.6953 12.0891 16.1719 9.30703C16.2268 9.2033 16.2554 9.08753 16.2554 8.97012C16.2554 8.85272 16.2268 8.73695 16.1719 8.6332ZM9 12.5965C6.42187 12.5965 4.14844 11.2395 2.83594 8.97012C4.14844 6.70078 6.42187 5.34375 9 5.34375C11.5781 5.34375 13.8516 6.70078 15.1641 8.97012C13.8516 11.2395 11.5781 12.5965 9 12.5965Z" fill="#1A1A1A"/>
<path d="M9 6.46875C8.50555 6.46875 8.02219 6.61534 7.60982 6.88005C7.19745 7.14476 6.87434 7.51571 6.67827 7.94728C6.4822 8.37885 6.42161 8.85278 6.50384 9.31153C6.58607 9.77028 6.80731 10.1935 7.13695 10.5231C7.46658 10.8527 7.88972 11.0739 8.34847 11.1562C8.80722 11.2384 9.28115 11.1778 9.71272 10.9817C10.1443 10.7857 10.5152 10.4626 10.78 10.0502C11.0447 9.63781 11.1913 9.15445 11.1913 8.66C11.1913 8.0791 10.9604 7.52191 10.5631 7.12462C10.1658 6.72733 9.6089 6.49648 9.028 6.49648L9 6.46875ZM9 10.0688C8.72136 10.0688 8.44886 9.98611 8.21691 9.83112C7.98497 9.67614 7.80389 9.45581 7.69651 9.19822C7.58913 8.94064 7.56024 8.65744 7.61346 8.38396C7.66668 8.11048 7.79963 7.85892 7.99678 7.66178C8.19392 7.46463 8.44548 7.33168 8.71896 7.27846C8.99244 7.22524 9.27564 7.25413 9.53322 7.36151C9.79081 7.46889 10.0111 7.64997 10.1661 7.88191C10.3211 8.11386 10.4038 8.38636 10.4038 8.665C10.4038 9.03733 10.2559 9.39447 9.99322 9.65822C9.73047 9.92097 9.37233 10.0688 9 10.0688Z" fill="#1A1A1A"/>
</svg>
