<svg width="100" height="100" viewBox="0 0 100 100" fill="none" xmlns="http://www.w3.org/2000/svg">
<path d="M63.5897 33.5604C63.1563 33.127 62.4508 33.127 62.0174 33.5604L46.873 48.7048C46.4008 49.177 45.7563 49.0492 45.3341 48.627L40.0174 43.3104C39.5841 42.877 38.8786 42.877 38.4452 43.3104L35.0008 46.7548C34.5674 47.1881 34.5674 47.8937 35.0008 48.327L42.3286 55.6437C42.7786 56.0937 43.2286 56.2881 43.873 56.2881H48.3008C48.9452 56.2881 49.523 56.0937 49.973 55.6437L67.0286 38.577C67.4619 38.1437 67.4619 37.4381 67.0286 37.0048L63.5841 33.5604H63.5897Z" fill="#1A1A1A" fill-opacity="0.3"/>
<path d="M73.8753 15.9767V13.7378C73.8753 12.5101 72.8809 11.5156 71.6531 11.5156H28.3587C27.1309 11.5156 26.1365 12.5101 26.1365 13.7378V15.9656C26.1365 17.1934 25.142 18.1878 23.9142 18.1878H21.6753C20.4476 18.1878 19.4531 19.1823 19.4531 20.4101L19.4642 62.149C19.4642 62.4434 19.5809 62.7267 19.792 62.9323L45.0142 88.1656C45.2253 88.3767 45.5031 88.4934 45.8031 88.4934H54.2198C54.5142 88.4878 54.7976 88.3712 55.0031 88.1601L80.2365 62.9267C80.4476 62.7156 80.5642 62.4378 80.5642 62.1434L80.5753 20.4323C80.5753 19.2101 79.5865 18.2156 78.3642 18.2101L76.1031 18.199C74.8809 18.199 73.892 17.199 73.892 15.9767H73.8753ZM73.4142 59.1712C73.4142 59.4656 73.2976 59.749 73.0865 59.9545L50.7753 82.2656C50.342 82.699 49.642 82.699 49.2087 82.2656L26.9142 59.9712C26.7031 59.7601 26.5865 59.4823 26.5865 59.1878V20.8767C26.5865 19.649 27.5809 18.6545 28.8087 18.6545H71.1865C72.4142 18.6545 73.4087 19.649 73.4087 20.8767V59.1656L73.4142 59.1712Z" fill="#1A1A1A" fill-opacity="0.3"/>
</svg>
