<svg width="100" height="100" viewBox="0 0 100 100" fill="none" xmlns="http://www.w3.org/2000/svg">
<path d="M63.5936 33.5604C63.1602 33.127 62.4547 33.127 62.0214 33.5604L46.8769 48.7048C46.4047 49.177 45.7602 49.0492 45.338 48.627L40.0214 43.3104C39.588 42.877 38.8825 42.877 38.4491 43.3104L35.0047 46.7548C34.5714 47.1881 34.5714 47.8937 35.0047 48.327L42.3325 55.6437C42.7825 56.0937 43.2325 56.2881 43.8769 56.2881H48.3047C48.9491 56.2881 49.5269 56.0937 49.9769 55.6437L67.0325 38.577C67.4658 38.1437 67.4658 37.4381 67.0325 37.0048L63.588 33.5604H63.5936Z" fill="#1A1A1A"/>
<path d="M73.8792 15.9767V13.7378C73.8792 12.5101 72.8848 11.5156 71.657 11.5156H28.3626C27.1348 11.5156 26.1404 12.5101 26.1404 13.7378V15.9656C26.1404 17.1934 25.1459 18.1878 23.9181 18.1878H21.6793C20.4515 18.1878 19.457 19.1823 19.457 20.4101L19.4681 62.149C19.4681 62.4434 19.5848 62.7267 19.7959 62.9323L45.0181 88.1656C45.2293 88.3767 45.507 88.4934 45.807 88.4934H54.2237C54.5181 88.4878 54.8015 88.3712 55.007 88.1601L80.2404 62.9267C80.4515 62.7156 80.5681 62.4378 80.5681 62.1434L80.5793 20.4323C80.5793 19.2101 79.5904 18.2156 78.3681 18.2101L76.107 18.199C74.8848 18.199 73.8959 17.199 73.8959 15.9767H73.8792ZM73.4181 59.1712C73.4181 59.4656 73.3015 59.749 73.0904 59.9545L50.7793 82.2656C50.3459 82.699 49.6459 82.699 49.2126 82.2656L26.9181 59.9712C26.707 59.7601 26.5904 59.4823 26.5904 59.1878V20.8767C26.5904 19.649 27.5848 18.6545 28.8126 18.6545H71.1904C72.4181 18.6545 73.4126 19.649 73.4126 20.8767V59.1656L73.4181 59.1712Z" fill="#1A1A1A"/>
</svg>
