<svg width="32" height="32" viewBox="0 0 32 32" fill="none" xmlns="http://www.w3.org/2000/svg">
<path d="M30.4157 14.5862L28.4157 12.5862C28.0765 12.2474 27.6269 12.0417 27.1487 12.0066C26.6706 11.9715 26.1957 12.1093 25.8107 12.395L19.6057 6.18997C19.8915 5.80507 20.0295 5.33031 19.9946 4.85217C19.9598 4.37403 19.7543 3.92433 19.4157 3.58497L17.4157 1.58497C17.23 1.39921 17.0095 1.25185 16.7668 1.15131C16.5241 1.05077 16.264 0.999023 16.0013 0.999023C15.7386 0.999023 15.4785 1.05077 15.2358 1.15131C14.9932 1.25185 14.7727 1.39921 14.5869 1.58497L6.58693 9.58497C6.40116 9.77069 6.25381 9.99119 6.15327 10.2339C6.05273 10.4766 6.00098 10.7367 6.00098 10.9993C6.00098 11.262 6.05273 11.5221 6.15327 11.7648C6.25381 12.0075 6.40116 12.228 6.58693 12.4137L8.58693 14.4137C8.92622 14.752 9.37567 14.9573 9.85353 14.9921C10.3314 15.027 10.8059 14.8892 11.1907 14.6037L12.0869 15.5L3.91443 23.6725C3.37148 24.2663 3.0785 25.0466 3.09648 25.8511C3.11447 26.6555 3.44204 27.422 4.011 27.9909C4.57995 28.5599 5.34643 28.8874 6.15084 28.9054C6.95526 28.9234 7.73562 28.6304 8.32943 28.0875L16.5007 19.915L17.3969 20.81C17.1111 21.1949 16.9731 21.6696 17.008 22.1478C17.0428 22.6259 17.2483 23.0756 17.5869 23.415L19.5869 25.415C19.7727 25.6007 19.9932 25.7481 20.2358 25.8486C20.4785 25.9492 20.7386 26.0009 21.0013 26.0009C21.264 26.0009 21.5241 25.9492 21.7668 25.8486C22.0095 25.7481 22.23 25.6007 22.4157 25.415L30.4157 17.415C30.6014 17.2292 30.7488 17.0088 30.8493 16.7661C30.9499 16.5234 31.0016 16.2633 31.0016 16.0006C31.0016 15.7379 30.9499 15.4778 30.8493 15.2351C30.7488 14.9924 30.6014 14.7719 30.4157 14.5862ZM10.0007 13L8.00068 11L16.0007 2.99997L18.0007 4.99997L10.0007 13ZM6.91568 26.6725C6.7049 26.882 6.41976 26.9996 6.12256 26.9996C5.82535 26.9996 5.54021 26.882 5.32943 26.6725C5.12028 26.4617 5.00291 26.1769 5.00291 25.88C5.00291 25.5831 5.12028 25.2982 5.32943 25.0875L13.5007 16.915L15.0869 18.5L6.91568 26.6725ZM12.6257 13.2075L18.2082 7.62497L24.3757 13.7925L18.7944 19.375L12.6257 13.2075ZM21.0007 24L19.0007 22L19.5007 21.5L26.5007 14.5L27.0007 14L29.0007 16L21.0007 24Z" fill="black"/>
</svg>
