<svg width="20" height="20" viewBox="0 0 20 20" fill="none" xmlns="http://www.w3.org/2000/svg">
<rect width="20" height="20" rx="10" fill="#12FF80"/>
<path d="M15.7217 10.0314C16.1249 10.0314 16.452 10.3399 16.4521 10.7306V12.9366C16.4521 13.3275 16.125 13.6447 15.7217 13.6447H14.6787C14.2754 13.6447 13.9482 13.9218 13.9482 14.3126V15.3624C13.9482 15.7533 13.626 16.0704 13.2227 16.0704H7.53906C7.13571 16.0704 6.80859 15.7533 6.80859 15.3624V14.0538C6.80859 13.663 7.13571 13.3458 7.53906 13.3458H12.9111C13.3144 13.3458 13.6415 13.0296 13.6416 12.6388V10.7394C13.6416 10.3485 13.9687 10.0314 14.3721 10.0314H15.7217ZM10.8906 8.6554C11.3134 8.6554 11.6572 8.98821 11.6572 9.39758V10.6544C11.6572 11.0641 11.3131 11.3966 10.8906 11.3966H9.59375C9.17104 11.3966 8.82812 11.0638 8.82812 10.6544V9.39758C8.82816 8.98797 9.17133 8.65544 9.59375 8.6554H10.8906ZM12.9102 4.00012C13.3134 4.00012 13.6404 4.31649 13.6406 4.70715V6.01672C13.6404 6.4074 13.3134 6.72375 12.9102 6.72375H7.54102C7.13768 6.72377 6.81055 7.04091 6.81055 7.43176L6.8125 9.32336C6.8125 9.71423 6.48538 10.0314 6.08203 10.0314H4.73145C4.32814 10.0313 4 9.72982 4 9.33899V7.13098C4.00011 6.7402 4.32719 6.42395 4.73047 6.42395H5.76953C6.17284 6.4239 6.5 6.10678 6.5 5.71594V4.70715C6.50024 4.31658 6.82643 4.00028 7.22949 4.00012H12.9102Z" fill="#1A1A1A"/>
</svg>
