<svg width="162" height="32" viewBox="0 0 162 32" fill="none" xmlns="http://www.w3.org/2000/svg">
<path d="M56.6755 17.1428C57.37 18.0991 57.7185 19.356 57.7185 20.9135C57.7185 22.3772 57.319 23.6924 56.52 24.8606C55.7209 26.0287 54.6144 26.9444 53.2018 27.604C51.7891 28.2648 50.191 28.5958 48.4075 28.5958C46.4845 28.5958 44.7818 28.2356 43.3007 27.5164C41.8184 26.7973 40.6546 25.8055 39.8095 24.5422C39.0416 23.3969 38.6035 22.1096 38.4952 20.6814C38.4765 20.4442 38.6657 20.2438 38.8997 20.2464L42.7394 20.3047C42.9385 20.3073 43.1016 20.4607 43.129 20.6611C43.2845 21.8229 43.8061 22.7729 44.691 23.5149C45.663 24.3291 46.9375 24.7363 48.512 24.7363C49.8326 24.7363 50.9092 24.442 51.7431 23.851C52.577 23.2612 52.9939 22.4469 52.9939 21.4082C52.9939 20.6763 52.7624 20.098 52.2994 19.6731C51.8352 19.2482 51.2054 18.9184 50.4063 18.6813C49.6073 18.4453 48.3963 18.1739 46.7757 17.867L46.6015 17.8315C45.0731 17.5486 43.7637 17.1643 42.6759 16.6811C41.5869 16.1979 40.7069 15.4838 40.0361 14.5389C39.364 13.5952 39.0279 12.3434 39.0279 10.7859C39.0279 9.37043 39.4038 8.09576 40.1568 6.96187C40.9098 5.82925 41.964 4.94395 43.3182 4.30725C44.6736 3.67055 46.1957 3.35093 47.8872 3.35093C49.6708 3.35093 51.2626 3.68197 52.6641 4.34277C54.0656 5.00357 55.1658 5.93072 55.9649 7.12168C56.683 8.19342 57.1062 9.38311 57.2356 10.6933C57.2593 10.933 57.0701 11.1385 56.8349 11.1372L52.9902 11.108C52.796 11.1068 52.6342 10.9622 52.5994 10.7669C52.4289 9.78771 51.9634 8.97979 51.2041 8.34308C50.3578 7.63535 49.2526 7.28149 47.886 7.28149C46.6351 7.28149 45.6282 7.55291 44.864 8.09576C44.0998 8.6386 43.7177 9.42877 43.7177 10.4675C43.7177 11.1753 43.943 11.7308 44.3948 12.1316C44.8466 12.5337 45.4651 12.852 46.253 13.0879C47.0396 13.3238 48.222 13.5838 49.7965 13.8667H49.8313C51.4531 14.1736 52.8247 14.5566 53.9486 15.017C55.0712 15.4774 55.981 16.1852 56.6755 17.1415V17.1428ZM77.9575 24.9658V27.9769C77.9575 28.2013 77.7795 28.384 77.558 28.384H74.4775C73.4071 28.384 72.5396 27.4987 72.5396 26.4079V25.808C72.5396 25.3083 71.8937 25.1358 71.646 25.567C71.1407 26.3306 70.5868 26.9571 69.9221 27.4454C69.1828 27.9895 68.4435 28.3713 67.535 28.5197C66.6662 28.6618 65.7775 28.611 64.9113 28.4753C63.7774 28.2965 62.6759 27.8881 61.7549 27.1803C60.5277 26.2367 59.9141 24.9379 59.9141 23.2853C59.9141 21.3739 60.5862 19.8989 61.9291 18.8601C63.2721 17.8213 65.2411 17.3026 67.8349 17.3026H71.0324C71.2527 17.3026 71.4319 17.1212 71.4319 16.8954V16.3463C71.4319 14.5883 70.0964 13.4075 68.217 13.4075C67.2213 13.4075 66.4646 13.6257 65.8273 14.062C65.2772 14.4387 64.9225 14.9257 64.7607 15.5218C64.7134 15.6956 64.5553 15.8148 64.3786 15.8148H60.8475C60.5986 15.8148 60.4132 15.5853 60.4542 15.3341C60.7243 13.7233 61.5134 12.455 62.8215 11.5304C64.2578 10.5157 66.085 9.99826 68.4249 9.99826C70.9029 9.99826 72.4848 10.569 73.8278 11.6902C75.1708 12.8114 75.8429 14.4463 75.8429 16.5936V23.3563C75.8429 23.7812 75.9412 24.0881 76.1378 24.2771C76.3345 24.4661 76.6071 24.56 76.9543 24.56H77.5542C77.7745 24.56 77.9538 24.7426 77.9538 24.9671L77.9575 24.9658ZM71.4331 20.8235C71.4331 20.599 71.2539 20.4163 71.0336 20.4163H67.7664C66.6774 20.4163 65.8385 20.6345 65.2473 21.0708C64.6574 21.5084 64.3611 22.1273 64.3611 22.9289C64.3611 23.6366 64.6275 24.2036 65.1602 24.6285C65.6929 25.0533 66.3986 25.2652 67.2798 25.2652C68.7958 25.2652 70.1412 24.5549 70.8942 23.194C71.2527 22.5446 71.4331 21.7836 71.4331 20.911V20.8222V20.8235ZM90.4299 3.61094H85.836C83.4115 3.61094 81.4474 5.61363 81.4474 8.08308V10.0477C81.4474 10.2722 81.2682 10.4549 81.0479 10.4549H78.4242C78.2039 10.4549 78.0247 10.6375 78.0247 10.862V13.9073C78.0247 14.1317 78.2039 14.3144 78.4242 14.3144H81.0479C81.2682 14.3144 81.4474 14.4958 81.4474 14.7215V27.9781C81.4474 28.2026 81.6267 28.3853 81.847 28.3853H85.4265C85.6468 28.3853 85.8261 28.2026 85.8261 27.9781V14.7215C85.8261 14.497 86.0053 14.3144 86.2256 14.3144H90.3976C90.6179 14.3144 90.7971 14.1317 90.7971 13.9073V10.862C90.7971 10.6375 90.6179 10.4549 90.3976 10.4549H86.2256C86.0053 10.4549 85.8261 10.2722 85.8261 10.0477V8.2822C85.8261 7.83321 86.1833 7.4692 86.6239 7.4692H90.4312C90.6515 7.4692 90.8307 7.28656 90.8307 7.06207V4.01681C90.8307 3.79231 90.6515 3.60967 90.4312 3.60967L90.4299 3.61094ZM29.5612 15.9911H26.1559C25.1391 15.9911 24.3151 16.8308 24.3151 17.867V22.9023C24.3151 23.9385 23.4912 24.7781 22.4743 24.7781H8.92899C7.91212 24.7781 7.08818 25.6178 7.08818 26.654V30.1241C7.08818 31.1604 7.91212 32 8.92899 32H23.2597C24.2765 32 25.0893 31.1604 25.0893 30.1241V27.3401C25.0893 26.3039 25.9132 25.5683 26.9301 25.5683H29.5612C30.5781 25.5683 31.4021 24.7287 31.4021 23.6924V17.8442C31.4021 16.8079 30.5781 15.9899 29.5612 15.9899V15.9911ZM7.08693 9.09774C7.08693 8.06151 7.91088 7.22188 8.92774 7.22188H22.4656C23.4825 7.22188 24.3064 6.38224 24.3064 5.34602V1.87586C24.3064 0.839635 23.4825 0 22.4656 0H8.14362C7.12676 0 6.30281 0.839635 6.30281 1.87586V4.5495C6.30281 5.58573 5.47887 6.42537 4.462 6.42537H1.84081C0.823946 6.42537 0 7.265 0 8.30123V14.1558C0 15.1921 0.82768 15.9899 1.84454 15.9899H5.24986C6.26672 15.9899 7.09067 15.1502 7.09067 14.114L7.08693 9.09774ZM14.0979 12.3434C13.0313 12.3434 12.1675 13.2249 12.1675 14.3106V17.6438C12.1675 18.7307 13.0325 19.6109 14.0979 19.6109H17.3688C18.4355 19.6109 19.2993 18.7294 19.2993 17.6438V14.3106C19.2993 13.2236 18.4342 12.3434 17.3688 12.3434H14.0979ZM107.968 14.1153C108.743 15.4369 109.132 16.9715 109.132 18.718C109.132 18.9539 109.126 19.2139 109.114 19.4968C109.108 19.6528 109.096 19.8063 109.08 19.9559C109.056 20.1601 108.884 20.3111 108.682 20.3111H96.2797C96.0432 20.3111 95.8553 20.5203 95.8827 20.7613C95.8964 20.878 95.9126 20.9947 95.9312 21.1101C95.9835 21.4399 96.0594 21.7658 96.1652 22.0816C96.2635 22.3759 96.3868 22.6613 96.5374 22.9314C96.9195 23.6163 97.441 24.1478 98.1006 24.5245C98.7603 24.9024 99.5307 25.0914 100.411 25.0914C101.476 25.0914 102.367 24.8441 103.087 24.3482C103.728 23.9055 104.176 23.3031 104.428 22.5395C104.483 22.3734 104.635 22.2592 104.807 22.2592H108.404C108.661 22.2592 108.85 22.504 108.792 22.7602C108.568 23.7457 108.149 24.6513 107.534 25.4808C106.816 26.4485 105.872 27.2095 104.702 27.7638C103.532 28.3193 102.205 28.5958 100.724 28.5958C98.8013 28.5958 97.1285 28.2191 95.7034 27.4632C94.2783 26.7085 93.1843 25.6279 92.4201 24.2239C91.6559 22.8198 91.2738 21.1964 91.2738 19.356C91.2738 17.5157 91.6447 15.8212 92.3853 14.4171C93.1258 13.0131 94.1688 11.9274 95.5118 11.16C96.8547 10.3927 98.3956 9.99952 100.133 9.99952C101.871 9.99952 103.445 10.3635 104.788 11.0725C106.131 11.7803 107.191 12.7962 107.967 14.1178L107.968 14.1153ZM104.632 16.7344C104.417 15.7679 103.972 15.0006 103.296 14.4336C102.508 13.7728 101.512 13.4418 100.307 13.4418C99.5655 13.4418 98.8835 13.5952 98.2574 13.9022C97.6326 14.2091 97.1223 14.6518 96.729 15.2301C96.4229 15.6791 96.2088 16.1814 96.0843 16.7356C96.0271 16.9893 96.22 17.2303 96.4751 17.2303H104.243C104.498 17.2303 104.69 16.988 104.632 16.7344ZM157.14 10.4549V6.31502C157.14 5.67705 156.633 5.16084 156.007 5.16084H153.788C153.162 5.16084 152.655 5.67705 152.655 6.31502V10.4549H150.241C149.663 10.4549 149.195 10.9317 149.195 11.5203V13.2401C149.195 13.8286 149.663 14.3055 150.241 14.3055H152.655V23.9258C152.655 24.5638 153.162 25.08 153.788 25.08H155.402C156.028 25.08 156.535 25.4174 156.535 26.0553V27.2361C156.535 27.8741 157.041 28.3903 157.667 28.3903H160.501C161.128 28.3903 161.609 27.8716 161.609 27.2336V25.7382C161.609 25.1003 161.103 24.5841 160.477 24.5841L158.149 24.5866C157.523 24.5866 157.141 23.9245 157.141 23.2878V14.3055H160.954C161.532 14.3055 162 13.8286 162 13.2401V11.5203C162 10.9317 161.532 10.4549 160.954 10.4549H157.14ZM147.676 14.3245V19.0605C147.676 19.7428 147.133 20.2971 146.462 20.2971H134.807V23.2092C134.807 23.8916 135.35 24.5549 136.021 24.5549L144.523 24.5524C145.193 24.5524 145.736 25.1054 145.736 25.789V27.1524C145.736 27.8348 145.221 28.3903 144.55 28.3903H135.506C134.836 28.3903 134.292 27.8373 134.292 27.1537V26.3344C134.292 25.652 133.749 25.0977 133.078 25.0977H131.544C130.874 25.0977 130.33 24.5447 130.33 23.8611V14.3233C130.33 13.6409 130.873 13.0866 131.544 13.0866H133.078C133.748 13.0866 134.292 12.5336 134.292 11.85V10.9787C134.292 10.2963 134.835 9.74205 135.506 9.74205H142.627C143.297 9.74205 143.841 10.295 143.841 10.9787V11.85C143.841 12.5324 144.383 13.0866 145.054 13.0866H146.463C147.133 13.0866 147.677 13.6396 147.677 14.3233L147.676 14.3245ZM134.807 14.979V17.2493H143.324V14.979C143.324 14.2966 142.782 13.7424 142.111 13.7424H136.02C135.35 13.7424 134.806 14.2954 134.806 14.979H134.807ZM125.052 13.0384C124.382 13.0384 123.838 12.4855 123.838 11.8018V10.9939C123.838 10.3115 123.296 9.75727 122.625 9.75727H116.632C115.962 9.75727 115.418 10.3103 115.418 10.9939V11.8018C115.418 12.4842 114.876 13.0384 114.205 13.0384H112.725C112.055 13.0384 111.512 13.5914 111.512 14.2751V27.155C111.512 27.8373 112.054 28.3916 112.725 28.3916H114.72C115.39 28.3916 115.934 27.8386 115.934 27.155V14.9879C115.934 14.3055 116.476 13.7512 117.147 13.7512H122.111C122.78 13.7512 123.324 14.3042 123.324 14.9879V27.155C123.324 27.8373 123.867 28.3916 124.538 28.3916H126.533C127.203 28.3916 127.746 27.8386 127.746 27.155V14.2751C127.746 13.5927 127.204 13.0384 126.533 13.0384H125.052Z" fill="black"/>
</svg>
