<svg width="159" height="60" viewBox="0 0 159 60" fill="none" xmlns="http://www.w3.org/2000/svg">
<path d="M21.3945 9.22656H36.1901C50.1891 9.22656 57.0988 17.7578 57.0988 30.1015C57.0988 42.4452 50.1911 50.9765 36.1901 50.9765H21.3945V9.22656ZM29.1594 43.8964H36.5552C45.3587 43.8964 48.9043 37.968 48.9043 30.1015C48.9043 22.235 45.3587 16.3066 36.5552 16.3066H29.1594V43.8964Z" fill="#1A1A1A"/>
<path d="M83.8153 9.22656L97.6328 48.4335V50.9745H90.114L87.1189 41.8364H69.3283L66.3333 50.9745H58.875V48.4335L72.6904 9.22656H83.8173H83.8153ZM71.6497 34.942H84.7935L80.7578 22.72C79.8401 19.9375 79.229 17.7578 78.741 15.0371H77.6397C77.2102 17.7598 76.5991 19.9375 75.6834 22.6601L71.6477 34.944L71.6497 34.942Z" fill="#1A1A1A"/>
<path d="M141.157 30.1034C141.157 42.7486 132.476 52.0662 119.944 52.0662C107.411 52.0662 98.7305 42.7486 98.7305 30.1034C98.7305 17.4583 107.411 8.14062 119.944 8.14062C132.476 8.14062 141.157 17.4583 141.157 30.1034ZM106.86 30.1034C106.86 38.5748 112.302 44.8664 119.944 44.8664C127.585 44.8664 133.027 38.5748 133.027 30.1034C133.027 21.6321 127.585 15.3405 119.944 15.3405C112.302 15.3405 106.86 21.6321 106.86 30.1034Z" fill="#1A1A1A"/>
<path d="M0.00201882 9.03224V50.9678C0.00201882 51.9718 0.82489 52.7862 1.83936 52.7862H4.66899C6.11709 52.7862 7.29291 53.9479 7.29291 55.3831V58.1816C7.29291 59.1856 8.1158 60 9.13027 60H14.6463C15.6608 60 16.4837 59.1856 16.4837 58.1816V54.2832C16.4837 53.2792 15.6608 52.4648 14.6463 52.4648H10.2395C8.79144 52.4648 7.61562 51.3031 7.61562 49.8679V10.1301C7.61562 8.6969 8.78942 7.53319 10.2395 7.53319H14.6443C15.6588 7.53319 16.4817 6.71879 16.4817 5.71476V1.81842C16.4817 0.814398 15.6588 0 14.6443 0H9.12825C8.11378 0 7.2909 0.814398 7.2909 1.81842V4.61692C7.2909 6.0501 6.1171 7.21381 4.66699 7.21381H1.83735C0.822871 7.21381 0 8.02821 0 9.03224H0.00201882Z" fill="#1A1A1A"/>
<path d="M158.113 50.9678V9.03224C158.113 8.02821 157.29 7.21381 156.275 7.21381H153.446C151.997 7.21381 150.822 6.0521 150.822 4.61692V1.81842C150.822 0.814398 149.999 0 148.984 0H143.468C142.454 0 141.631 0.814398 141.631 1.81842V5.71476C141.631 6.71879 142.454 7.53319 143.468 7.53319H147.875C149.323 7.53319 150.499 8.6949 150.499 10.1301V49.8699C150.499 51.3031 149.325 52.4668 147.875 52.4668H143.47C142.456 52.4668 141.633 53.2812 141.633 54.2852V58.1836C141.633 59.1876 142.456 60.002 143.47 60.002H148.986C150.001 60.002 150.824 59.1876 150.824 58.1836V55.3851C150.824 53.9519 151.997 52.7882 153.448 52.7882H156.277C157.292 52.7882 158.115 51.9738 158.115 50.9698L158.113 50.9678Z" fill="#1A1A1A"/>
</svg>
