<svg width="43" height="43" viewBox="0 0 43 43" fill="none" xmlns="http://www.w3.org/2000/svg">
<path d="M26.0694 32.1689V33.9247C26.0694 34.4527 25.6418 34.8803 25.1138 34.8803H9.12498C8.59704 34.8803 8.16943 34.4527 8.16943 33.9247L8.16465 17.9407C8.16704 17.4127 8.59226 16.9851 9.1202 16.9851H10.8808C11.1436 16.9851 11.3586 16.7701 11.3586 16.5073V14.2642C11.3586 14.0014 11.1436 13.7864 10.8808 13.7864H8.91476C8.38681 13.7864 7.9592 14.214 7.9592 14.7419V15.8074C7.9592 16.3353 7.53398 16.7629 7.00604 16.7653H6.51631L5.92148 16.7701C5.39593 16.7701 4.9707 17.2001 4.9707 17.7257V34.1564C4.9707 34.6844 5.39831 35.112 5.92626 35.112H7.00365C7.53159 35.112 7.9592 35.5396 7.9592 36.0675V37.1234C7.9592 37.6514 8.38681 38.079 8.91476 38.079H25.3193C25.8472 38.079 26.2748 37.6514 26.2748 37.1258V36.0532C26.2748 35.5277 26.7 35.1024 27.228 35.1H27.7583L27.7798 35.0977H28.3125C28.8381 35.0929 29.2633 34.6653 29.2633 34.1397V32.1689C29.2633 31.9061 29.0483 31.6911 28.7855 31.6911H26.5471C26.2844 31.6911 26.0694 31.9061 26.0694 32.1689Z" fill="#1A1A1A" fill-opacity="0.4"/>
<path d="M38.0763 25.3223V8.96794C38.0763 8.44 37.6462 8.01239 37.1183 8.01239H36.0505C35.5225 8.01477 35.0949 7.58955 35.0925 7.06161V5.91972C35.0877 5.39416 34.6601 4.96655 34.1346 4.96655H17.7253C17.1974 4.96655 16.7697 5.39416 16.7697 5.92211V6.99233C16.7697 7.51789 16.3445 7.9455 15.819 7.94789L14.732 7.95266C14.2065 7.95266 13.7812 8.38266 13.7812 8.90822V25.339C13.7812 25.8669 14.2089 26.2946 14.7368 26.2946H15.8142C16.3421 26.2946 16.7697 26.7222 16.7697 27.2501V28.306C16.7697 28.8339 17.1974 29.2616 17.7253 29.2616H34.1322C34.6601 29.2616 35.0878 28.8339 35.0878 28.306V27.2358C35.0878 26.7102 35.513 26.2826 36.0385 26.2802L37.1231 26.2754C37.6486 26.2754 38.0739 25.8454 38.0739 25.3199L38.0763 25.3223ZM33.9268 26.0628H17.9355C17.4076 26.0628 16.98 25.6352 16.98 25.1073L16.9752 9.12322C16.9752 8.59527 17.4028 8.16766 17.9307 8.16766H33.9196C34.4475 8.16766 34.8751 8.59527 34.8751 9.12322L34.8799 25.1073C34.8799 25.6352 34.4523 26.0628 33.9244 26.0628H33.9268Z" fill="#1A1A1A" fill-opacity="0.4"/>
</svg>
