<svg width="50" height="50" viewBox="0 0 50 50" fill="none" xmlns="http://www.w3.org/2000/svg">
<path d="M12.5557 42.5557H9V7H12.5557V42.5557ZM41.001 42.5557H12.5566V39H19.668V35.4453H30.335V39H37.4453V10.5557H12.5566V7H41.001V42.5557ZM19.665 31.8877H16.1094V28.332H19.665V31.8877ZM26.7783 31.8877H23.2227V28.332H26.7783V31.8877ZM33.8896 31.8877H30.334V28.332H33.8896V31.8877ZM19.665 24.7783H16.1094V21.2227H19.665V24.7783ZM26.7783 24.7783H23.2227V21.2227H26.7783V24.7783ZM33.8896 24.7783H30.334V21.2227H33.8896V24.7783ZM19.665 17.6689H16.1094V14.1133H19.665V17.6689ZM26.7783 17.6689H23.2227V14.1133H26.7783V17.6689ZM33.8896 17.6689H30.334V14.1133H33.8896V17.6689Z" fill="#1A1A1A" fill-opacity="0.4"/>
</svg>
