<svg width="128" height="45" viewBox="0 0 128 45" fill="none" xmlns="http://www.w3.org/2000/svg">
<path d="M27.8447 20.4139C25.8198 19.6094 23.3471 18.9388 20.4267 18.3998H20.3642C17.5265 17.9048 15.3967 17.4497 13.9789 17.0365C12.559 16.6253 11.4437 16.0664 10.6309 15.3638C9.81812 14.6612 9.41072 13.6911 9.41072 12.4515C9.41072 10.6351 10.0985 9.2518 11.476 8.30167C12.8535 7.35154 14.6686 6.87648 16.9215 6.87648C19.384 6.87648 21.3747 7.49526 22.8994 8.73482C24.2668 9.84863 25.1038 11.2619 25.4124 12.9745C25.4729 13.3158 25.7653 13.5693 26.1163 13.5713L33.0421 13.6232C33.4677 13.6272 33.8065 13.2659 33.7642 12.8467C33.5322 10.5552 32.7678 8.47334 31.475 6.59703C30.035 4.51113 28.0524 2.89032 25.5294 1.73459C23.0043 0.578861 20.1363 0 16.9235 0C13.878 0 11.1331 0.556905 8.69272 1.67271C6.25234 2.78852 4.35247 4.33547 2.99715 6.31957C1.63981 8.30167 0.962148 10.5333 0.962148 13.0104C0.962148 15.737 1.5672 17.9247 2.77731 19.5775C3.98742 21.2302 5.57266 22.4798 7.53505 23.3261C9.49543 24.1725 11.8531 24.8431 14.6081 25.3402L14.9207 25.402C17.8411 25.939 20.0214 26.4141 21.4614 26.8272C22.9014 27.2404 24.0369 27.8193 24.8719 28.5618C25.7068 29.3064 26.1243 30.3184 26.1243 31.5979C26.1243 33.4163 25.3741 34.8395 23.8715 35.8715C22.369 36.9034 20.4288 37.4204 18.0509 37.4204C15.2132 37.4204 12.918 36.7078 11.1654 35.2826C9.57005 33.9852 8.63222 32.3224 8.34986 30.2904C8.30146 29.9391 8.007 29.6716 7.648 29.6677L0.730211 29.5639C0.30869 29.5579 -0.0301407 29.9092 0.00212886 30.3244C0.197763 32.8234 0.988367 35.075 2.36991 37.0791C3.89263 39.2887 5.99015 41.0233 8.66045 42.2828C11.3308 43.5424 14.3984 44.1731 17.8613 44.1731C21.0742 44.1731 23.9542 43.5943 26.4995 42.4385C29.0447 41.2828 31.0374 39.682 32.4774 37.638C33.9174 35.594 34.6374 33.2925 34.6374 30.7316C34.6374 28.0049 34.0102 25.8072 32.7598 24.1345C31.5073 22.4618 29.8696 21.2223 27.8467 20.4178L27.8447 20.4139Z" fill="#1A1A1A"/>
<path d="M70.3811 37.1107H69.3001C68.6748 37.1107 68.1827 36.947 67.8298 36.6157C67.4748 36.2863 67.2973 35.7494 67.2973 35.0048V23.1721C67.2973 19.4135 66.0872 16.5531 63.667 14.593C61.2468 12.6328 58.397 11.6328 53.9317 11.6328C49.7165 11.6328 46.423 12.539 43.8374 14.3155C41.4797 15.9344 40.0578 18.152 39.5717 20.9704C39.4971 21.4076 39.8299 21.8108 40.2796 21.8108H46.6408C46.9594 21.8108 47.2458 21.6032 47.3305 21.2998C47.621 20.2559 48.2623 19.4055 49.2526 18.7448C50.4002 17.9803 51.7636 17.5991 53.5586 17.5991C56.9428 17.5991 59.351 19.665 59.351 22.741V23.7031C59.351 24.0963 59.0283 24.4137 58.633 24.4137H52.8708C48.1978 24.4137 44.6502 25.3219 42.2299 27.1383C39.8097 28.9567 38.5996 31.5377 38.5996 34.8811C38.5996 37.7734 39.7048 40.0449 41.9173 41.6957C43.5772 42.9352 45.5598 43.6498 47.6028 43.9632C49.1639 44.2028 50.7652 44.2906 52.3303 44.0411C53.968 43.7816 55.2991 43.1129 56.6302 42.1608C57.8262 41.3065 58.8246 40.2106 59.7362 38.8732C60.1799 38.1187 61.3456 38.4201 61.3456 39.2944V40.3443C61.3456 42.2526 62.9067 43.8015 64.8368 43.8015H70.3851C70.7824 43.8015 71.1031 43.4822 71.1031 43.0909V37.8233C71.1031 37.4301 70.7804 37.1127 70.3851 37.1127L70.3811 37.1107ZM59.3469 30.7293C59.3469 32.2582 59.0222 33.5896 58.3768 34.7254C57.0215 37.1067 54.5972 38.3483 51.8664 38.3483C50.2792 38.3483 49.0065 37.977 48.0485 37.2345C47.0885 36.4899 46.6085 35.4999 46.6085 34.2603C46.6085 32.8571 47.141 31.7732 48.2038 31.0087C49.2687 30.2462 50.7794 29.863 52.7417 29.863H58.6289C59.0262 29.863 59.3469 30.1823 59.3469 30.5736V30.7293Z" fill="#1A1A1A"/>
<path d="M93.5693 0.453125H85.2922C80.9257 0.453125 77.3841 3.95624 77.3841 8.27973V11.717C77.3841 12.1102 77.0614 12.4276 76.6661 12.4276H71.9407C71.5433 12.4276 71.2227 12.7469 71.2227 13.1382V18.4677C71.2227 18.8609 71.5454 19.1783 71.9407 19.1783H76.6661C77.0635 19.1783 77.3841 19.4977 77.3841 19.8889V43.0853C77.3841 43.4785 77.7068 43.7959 78.1021 43.7959H84.552C84.9493 43.7959 85.27 43.4765 85.27 43.0853V19.8889C85.27 19.4957 85.5927 19.1783 85.988 19.1783H93.5028C93.9001 19.1783 94.2208 18.8589 94.2208 18.4677V13.1382C94.2208 12.7449 93.8981 12.4276 93.5028 12.4276H85.988C85.5907 12.4276 85.27 12.1082 85.27 11.717V8.62705C85.27 7.8406 85.9134 7.20385 86.708 7.20385H93.5673C93.9646 7.20385 94.2853 6.88448 94.2853 6.49325V1.16373C94.2853 0.7705 93.9626 0.453125 93.5673 0.453125H93.5693Z" fill="#1A1A1A"/>
<path d="M125.167 18.8327C123.769 16.5213 121.859 14.7448 119.439 13.5052C117.019 12.2657 114.222 11.6289 111.053 11.6289C107.885 11.6289 105.148 12.3176 102.728 13.6609C100.307 15.0043 98.4297 16.9025 97.0945 19.3597C95.7594 21.8169 95.0918 24.6972 95.0918 28.0007C95.0918 31.3042 95.7816 34.0628 97.157 36.518C98.5346 38.9751 100.505 40.8654 103.072 42.1868C105.638 43.5102 108.653 44.1689 112.118 44.1689C114.788 44.1689 117.178 43.6839 119.286 42.7138C121.391 41.7437 123.094 40.4123 124.387 38.7176C125.494 37.2685 126.25 35.6816 126.653 33.957C126.758 33.5099 126.417 33.0807 125.954 33.0807H119.473C119.163 33.0807 118.891 33.2803 118.792 33.5698C118.336 34.9051 117.529 35.9591 116.374 36.7355C115.079 37.6018 113.473 38.037 111.553 38.037C109.968 38.037 108.58 37.7076 107.391 37.0469C106.201 36.3862 105.263 35.458 104.573 34.2584C104.301 33.7853 104.079 33.2863 103.901 32.7713C103.712 32.2184 103.575 31.6475 103.48 31.0707C103.448 30.8691 103.417 30.6655 103.393 30.4619C103.345 30.0427 103.682 29.6754 104.109 29.6754H126.454C126.817 29.6754 127.127 29.4099 127.168 29.0526C127.198 28.7912 127.22 28.5237 127.23 28.2502C127.25 27.7552 127.261 27.3001 127.261 26.8869C127.261 23.8309 126.561 21.1462 125.163 18.8327H125.167ZM118.453 24.284H104.46C104 24.284 103.655 23.8628 103.756 23.4197C103.98 22.4476 104.367 21.5694 104.918 20.7849C105.628 19.7729 106.545 18.9984 107.671 18.4615C108.798 17.9245 110.029 17.6571 111.364 17.6571C113.534 17.6571 115.329 18.2359 116.747 19.3916C117.963 20.3837 118.768 21.7251 119.155 23.4177C119.258 23.8628 118.913 24.286 118.453 24.286V24.284Z" fill="#1A1A1A"/>
</svg>
