<svg width="62" height="62" viewBox="0 0 62 62" fill="none" xmlns="http://www.w3.org/2000/svg">
<rect width="61.3333" height="61.3333" rx="10" fill="#12FF80" fill-opacity="0.22"/>
<path d="M30.668 12.7916C27.1326 12.7916 23.6767 13.84 20.7372 15.8041C17.7976 17.7682 15.5065 20.5599 14.1536 23.8262C12.8007 27.0924 12.4467 30.6865 13.1364 34.1539C13.8262 37.6213 15.5286 40.8063 18.0284 43.3062C20.5283 45.806 23.7133 47.5084 27.1807 48.1982C30.6481 48.8879 34.2422 48.5339 37.5084 47.181C40.7747 45.8281 43.5664 43.537 45.5305 40.5974C47.4946 37.6579 48.543 34.202 48.543 30.6666C48.5375 25.9276 46.6525 21.3842 43.3015 18.0331C39.9505 14.6821 35.407 12.7971 30.668 12.7916ZM45.793 30.6666C45.7942 32.0615 45.6016 33.4498 45.2206 34.7916H38.6017C39.0234 32.0578 39.0234 29.2755 38.6017 26.5416H45.2206C45.6016 27.8835 45.7942 29.2718 45.793 30.6666ZM26.1992 37.5416H35.1367C34.2562 40.4267 32.7277 43.0723 30.668 45.276C28.609 43.0717 27.0806 40.4263 26.1992 37.5416ZM25.5289 34.7916C25.0568 32.0619 25.0568 29.2714 25.5289 26.5416H35.8208C36.2929 29.2714 36.2929 32.0619 35.8208 34.7916H25.5289ZM15.543 30.6666C15.5418 29.2718 15.7344 27.8835 16.1153 26.5416H22.7342C22.3126 29.2755 22.3126 32.0578 22.7342 34.7916H16.1153C15.7344 33.4498 15.5418 32.0615 15.543 30.6666ZM35.1367 23.7916H26.1992C27.0797 20.9065 28.6083 18.261 30.668 16.0573C32.7269 18.2616 34.2553 20.9069 35.1367 23.7916ZM44.1309 23.7916H38.0088C37.2371 20.9607 35.9366 18.3014 34.1759 15.9541C36.3033 16.4652 38.2949 17.4301 40.0144 18.7829C41.7339 20.1357 43.1405 21.8443 44.1378 23.7916H44.1309ZM27.16 15.9541C25.3993 18.3014 24.0988 20.9607 23.3272 23.7916H17.1981C18.1955 21.8443 19.6021 20.1357 21.3216 18.7829C23.041 17.4301 25.0327 16.4652 27.16 15.9541ZM17.1981 37.5416H23.3272C24.0988 40.3726 25.3993 43.0319 27.16 45.3791C25.0327 44.8681 23.041 43.9031 21.3216 42.5503C19.6021 41.1975 18.1955 39.4889 17.1981 37.5416ZM34.1759 45.3791C35.9366 43.0319 37.2371 40.3726 38.0088 37.5416H44.1378C43.1405 39.4889 41.7339 41.1975 40.0144 42.5503C38.2949 43.9031 36.3033 44.8681 34.1759 45.3791Z" fill="black"/>
</svg>
