<svg width="62" height="62" viewBox="0 0 62 62" fill="none" xmlns="http://www.w3.org/2000/svg">
<rect width="61.3333" height="61.3333" rx="10" fill="#12FF80" fill-opacity="0.22"/>
<path d="M50.5333 21.186L42.5772 17.2088C41.5889 15.411 39.1259 14.1666 36.168 14.1666C32.3128 14.1666 29.293 16.2807 29.293 18.9791C29.2933 19.3606 29.3549 19.7395 29.4752 20.1015L26.1202 21.779C24.9501 21.2807 23.6897 21.0297 22.418 21.0416C18.5628 21.0416 15.543 23.1557 15.543 25.8541C15.5433 26.2356 15.6049 26.6145 15.7252 26.9765L10.8027 29.436C10.5742 29.5503 10.3821 29.726 10.2479 29.9434C10.1138 30.1607 10.0428 30.4112 10.043 30.6666V41.6666C10.0428 41.9221 10.1138 42.1725 10.2479 42.3899C10.3821 42.6073 10.5742 42.7829 10.8027 42.8973L21.8027 48.3973C21.9937 48.4928 22.2044 48.5426 22.418 48.5426C22.6316 48.5426 22.8423 48.4928 23.0333 48.3973L50.5333 34.6473C50.7617 34.5329 50.9538 34.3573 51.088 34.1399C51.2222 33.9225 51.2932 33.6721 51.293 33.4166V22.4166C51.2932 22.1612 51.2222 21.9107 51.088 21.6934C50.9538 21.476 50.7617 21.3003 50.5333 21.186ZM22.418 34.6301L14.4928 30.6666L17.4336 29.1971C18.678 30.1063 20.438 30.6666 22.418 30.6666C26.2731 30.6666 29.293 28.5526 29.293 25.8541C29.2865 25.0553 29.0245 24.2796 28.5453 23.6404L31.1836 22.3221C32.428 23.2313 34.188 23.7916 36.168 23.7916C39.327 23.7916 41.9241 22.3719 42.7594 20.3748L46.8431 22.4166L22.418 34.6301ZM36.168 16.9166C38.5295 16.9166 40.293 18.0063 40.293 18.9791C40.293 19.9519 38.5295 21.0416 36.168 21.0416C33.8064 21.0416 32.043 19.9519 32.043 18.9791C32.043 18.0063 33.8064 16.9166 36.168 16.9166ZM22.418 23.7916C24.7795 23.7916 26.543 24.8813 26.543 25.8541C26.543 26.8269 24.7795 27.9166 22.418 27.9166C20.7559 27.9166 19.3913 27.3769 18.7278 26.7135C18.6838 26.6567 18.6355 26.6032 18.5834 26.5537C18.4096 26.3605 18.3071 26.1136 18.293 25.8541C18.293 24.8813 20.0564 23.7916 22.418 23.7916ZM12.793 32.8907L21.043 37.0157V44.9426L12.793 40.8176V32.8907ZM23.793 44.9426V37.0157L48.543 24.6407V32.5676L23.793 44.9426Z" fill="black"/>
</svg>
