<svg width="62" height="62" viewBox="0 0 62 62" fill="none" xmlns="http://www.w3.org/2000/svg">
<rect width="61.3333" height="61.3333" rx="10" fill="#12FF80" fill-opacity="0.22"/>
<path d="M44.418 14.8541H16.918C16.0063 14.8541 15.1319 15.2163 14.4873 15.8609C13.8426 16.5056 13.4805 17.3799 13.4805 18.2916V27.9166C13.4805 37.2477 18.0042 42.9076 21.7992 46.0133C25.8744 49.346 29.953 50.4821 30.1248 50.5319C30.4805 50.6282 30.8554 50.6282 31.2111 50.5319C31.383 50.4838 35.4616 49.346 39.5367 46.0133C43.3317 42.9076 47.8555 37.2477 47.8555 27.9166V18.2916C47.8555 17.3799 47.4933 16.5056 46.8486 15.8609C46.204 15.2163 45.3297 14.8541 44.418 14.8541ZM43.7305 27.9166C43.7305 34.0543 41.4806 39.0352 37.0428 42.7237C35.1406 44.2933 32.9848 45.5273 30.668 46.3726C28.3509 45.5277 26.1951 44.2937 24.2931 42.7237C19.8553 39.0352 17.6055 34.0543 17.6055 27.9166V18.9791H43.7305V27.9166ZM22.3338 33.5008C22.1419 33.309 21.9897 33.0812 21.8859 32.8306C21.7821 32.5799 21.7286 32.3112 21.7286 32.0399C21.7286 31.7686 21.7821 31.4999 21.8859 31.2493C21.9897 30.9986 22.1419 30.7708 22.3338 30.579C22.5256 30.3871 22.7534 30.2349 23.004 30.1311C23.2547 30.0273 23.5234 29.9738 23.7947 29.9738C24.066 29.9738 24.3347 30.0273 24.5853 30.1311C24.836 30.2349 25.0638 30.3871 25.2556 30.579L27.918 33.2448L36.0837 25.0773C36.4712 24.6898 36.9967 24.4721 37.5447 24.4721C38.0926 24.4721 38.6182 24.6898 39.0056 25.0773C39.3931 25.4647 39.6108 25.9902 39.6108 26.5382C39.6108 27.0861 39.3931 27.6117 39.0056 27.9991L29.3806 37.6241C29.189 37.8164 28.9613 37.969 28.7106 38.0731C28.4599 38.1772 28.1911 38.2308 27.9197 38.2308C27.6482 38.2308 27.3794 38.1772 27.1287 38.0731C26.878 37.969 26.6504 37.8164 26.4588 37.6241L22.3338 33.5008Z" fill="black"/>
</svg>
