<svg width="62" height="62" viewBox="0 0 62 62" fill="none" xmlns="http://www.w3.org/2000/svg">
<rect width="61.3333" height="61.3333" rx="10" fill="#12FF80" fill-opacity="0.22"/>
<path d="M44.418 15.5416H16.918C16.1886 15.5416 15.4892 15.8314 14.9734 16.3471C14.4577 16.8628 14.168 17.5623 14.168 18.2916V27.9166C14.168 36.9779 18.5542 42.4693 22.2341 45.4805C26.1975 48.7221 30.1403 49.8238 30.3122 49.8685C30.5485 49.9328 30.7977 49.9328 31.0341 49.8685C31.2059 49.8238 35.1436 48.7221 39.1122 45.4805C42.7817 42.4693 47.168 36.9779 47.168 27.9166V18.2916C47.168 17.5623 46.8782 16.8628 46.3625 16.3471C45.8468 15.8314 45.1473 15.5416 44.418 15.5416ZM44.418 18.2916V27.9166C44.418 28.3824 44.4042 28.8396 44.3784 29.2916H32.043V18.2916H44.418ZM16.918 18.2916H29.293V29.2916H16.9575C16.9317 28.8396 16.918 28.3824 16.918 27.9166V18.2916ZM17.272 32.0416H29.293V46.5737C27.3804 45.7512 25.5913 44.6672 23.9769 43.3527C20.3417 40.3793 18.0988 36.586 17.2755 32.0416H17.272ZM37.4398 43.2857C35.8038 44.6282 33.987 45.7338 32.043 46.5702V32.0416H44.0588C43.2423 36.5516 41.0269 40.3226 37.4398 43.2857Z" fill="black"/>
</svg>
