<svg width="62" height="62" viewBox="0 0 62 62" fill="none" xmlns="http://www.w3.org/2000/svg">
<rect width="61.3333" height="61.3333" rx="10" fill="#12FF80" fill-opacity="0.22"/>
<path d="M47.4877 26.3388C46.8397 25.6616 46.1694 24.9638 45.9167 24.3502C45.683 23.7882 45.6692 22.8566 45.6555 21.9543C45.6297 20.2768 45.6022 18.3758 44.2805 17.0541C42.9587 15.7324 41.0578 15.7049 39.3803 15.6791C38.478 15.6654 37.5464 15.6516 36.9844 15.4179C36.3725 15.1652 35.673 14.4949 34.9958 13.8469C33.8098 12.7074 32.4623 11.4166 30.668 11.4166C28.8736 11.4166 27.5278 12.7074 26.3402 13.8469C25.663 14.4949 24.9652 15.1652 24.3516 15.4179C23.793 15.6516 22.858 15.6654 21.9556 15.6791C20.2781 15.7049 18.3772 15.7324 17.0555 17.0541C15.7337 18.3758 15.7148 20.2768 15.6805 21.9543C15.6667 22.8566 15.653 23.7882 15.4192 24.3502C15.1666 24.9621 14.4962 25.6616 13.8483 26.3388C12.7087 27.5248 11.418 28.8723 11.418 30.6666C11.418 32.461 12.7087 33.8068 13.8483 34.9944C14.4962 35.6716 15.1666 36.3694 15.4192 36.983C15.653 37.5451 15.6667 38.4766 15.6805 39.379C15.7062 41.0565 15.7337 42.9574 17.0555 44.2791C18.3772 45.6008 20.2781 45.6283 21.9556 45.6541C22.858 45.6679 23.7895 45.6816 24.3516 45.9154C24.9634 46.168 25.663 46.8383 26.3402 47.4863C27.5261 48.6258 28.8736 49.9166 30.668 49.9166C32.4623 49.9166 33.8081 48.6258 34.9958 47.4863C35.673 46.8383 36.3708 46.168 36.9844 45.9154C37.5464 45.6816 38.478 45.6679 39.3803 45.6541C41.0578 45.6283 42.9587 45.6008 44.2805 44.2791C45.6022 42.9574 45.6297 41.0565 45.6555 39.379C45.6692 38.4766 45.683 37.5451 45.9167 36.983C46.1694 36.3712 46.8397 35.6716 47.4877 34.9944C48.6272 33.8085 49.918 32.461 49.918 30.6666C49.918 28.8723 48.6272 27.5265 47.4877 26.3388ZM45.5025 33.0918C44.6792 33.9512 43.8267 34.8398 43.3747 35.9312C42.9416 36.9796 42.9227 38.1776 42.9055 39.3377C42.8883 40.5408 42.8694 41.8007 42.3348 42.3335C41.8003 42.8663 40.5491 42.8869 39.3391 42.9041C38.1789 42.9213 36.9809 42.9402 35.9325 43.3733C34.8411 43.8254 33.9525 44.6779 33.0931 45.5012C32.2337 46.3244 31.3555 47.1666 30.668 47.1666C29.9805 47.1666 29.0953 46.321 28.2428 45.5012C27.3903 44.6813 26.4948 43.8254 25.4034 43.3733C24.355 42.9402 23.157 42.9213 21.9969 42.9041C20.7938 42.8869 19.5339 42.868 19.0011 42.3335C18.4683 41.799 18.4477 40.5477 18.4305 39.3377C18.4133 38.1776 18.3944 36.9796 17.9612 35.9312C17.5092 34.8398 16.6567 33.9512 15.8334 33.0918C15.0102 32.2324 14.168 31.3541 14.168 30.6666C14.168 29.9791 15.0136 29.094 15.8334 28.2415C16.6533 27.389 17.5092 26.4935 17.9612 25.4021C18.3944 24.3537 18.4133 23.1557 18.4305 21.9955C18.4477 20.7924 18.4666 19.5326 19.0011 18.9998C19.5356 18.4669 20.7869 18.4463 21.9969 18.4291C23.157 18.4119 24.355 18.393 25.4034 17.9599C26.4948 17.5079 27.3834 16.6554 28.2428 15.8321C29.1022 15.0088 29.9805 14.1666 30.668 14.1666C31.3555 14.1666 32.2406 15.0123 33.0931 15.8321C33.9456 16.6519 34.8411 17.5079 35.9325 17.9599C36.9809 18.393 38.1789 18.4119 39.3391 18.4291C40.5422 18.4463 41.802 18.4652 42.3348 18.9998C42.8677 19.5343 42.8883 20.7855 42.9055 21.9955C42.9227 23.1557 42.9416 24.3537 43.3747 25.4021C43.8267 26.4935 44.6792 27.3821 45.5025 28.2415C46.3258 29.1008 47.168 29.9791 47.168 30.6666C47.168 31.3541 46.3223 32.2393 45.5025 33.0918ZM38.5158 25.5688C38.6436 25.6965 38.745 25.8482 38.8142 26.0151C38.8834 26.182 38.919 26.3609 38.919 26.5416C38.919 26.7223 38.8834 26.9012 38.8142 27.0682C38.745 27.2351 38.6436 27.3867 38.5158 27.5144L28.8908 37.1394C28.7631 37.2673 28.6114 37.3687 28.4445 37.4379C28.2776 37.5071 28.0987 37.5427 27.918 37.5427C27.7373 37.5427 27.5583 37.5071 27.3914 37.4379C27.2245 37.3687 27.0729 37.2673 26.9452 37.1394L22.8202 33.0144C22.5622 32.7564 22.4172 32.4065 22.4172 32.0416C22.4172 31.6768 22.5622 31.3268 22.8202 31.0688C23.0782 30.8108 23.4281 30.6659 23.793 30.6659C24.1578 30.6659 24.5078 30.8108 24.7658 31.0688L27.918 34.2227L36.5702 25.5688C36.6979 25.441 36.8495 25.3396 37.0164 25.2704C37.1833 25.2012 37.3623 25.1655 37.543 25.1655C37.7237 25.1655 37.9026 25.2012 38.0695 25.2704C38.2364 25.3396 38.3881 25.441 38.5158 25.5688Z" fill="black"/>
</svg>
