<svg width="62" height="62" viewBox="0 0 62 62" fill="none" xmlns="http://www.w3.org/2000/svg">
<rect width="61.3333" height="61.3333" rx="10" fill="#12FF80" fill-opacity="0.22"/>
<path d="M48.543 19.6667C48.5425 18.6381 48.2535 17.6303 47.709 16.7577C47.1645 15.8851 46.3862 15.1827 45.4625 14.7302C44.5387 14.2777 43.5067 14.0933 42.4834 14.198C41.4602 14.3026 40.4868 14.6921 39.6738 15.3222C38.8608 15.9522 38.2408 16.7976 37.8842 17.7624C37.5275 18.7272 37.4486 19.7726 37.6563 20.78C37.864 21.7874 38.35 22.7163 39.0591 23.4614C39.7682 24.2064 40.6721 24.7376 41.668 24.9948V27.9167C41.668 28.2813 41.5231 28.6311 41.2653 28.8889C41.0074 29.1468 40.6577 29.2917 40.293 29.2917H25.168C24.6995 29.2915 24.2344 29.3718 23.793 29.5288V24.9948C25.0891 24.6601 26.2187 23.8642 26.9701 22.7563C27.7214 21.6483 28.0428 20.3044 27.8741 18.9764C27.7055 17.6484 27.0582 16.4275 26.0538 15.5426C25.0494 14.6577 23.7566 14.1694 22.418 14.1694C21.0793 14.1694 19.7866 14.6577 18.7822 15.5426C17.7777 16.4275 17.1305 17.6484 16.9618 18.9764C16.7931 20.3044 17.1146 21.6483 17.8659 22.7563C18.6172 23.8642 19.7468 24.6601 21.043 24.9948V36.3385C19.7468 36.6732 18.6172 37.4691 17.8659 38.577C17.1146 39.685 16.7931 41.0289 16.9618 42.3569C17.1305 43.6849 17.7777 44.9058 18.7822 45.7907C19.7866 46.6757 21.0793 47.1639 22.418 47.1639C23.7566 47.1639 25.0494 46.6757 26.0538 45.7907C27.0582 44.9058 27.7055 43.6849 27.8741 42.3569C28.0428 41.0289 27.7214 39.685 26.9701 38.577C26.2187 37.4691 25.0891 36.6732 23.793 36.3385V33.4167C23.793 33.052 23.9378 32.7023 24.1957 32.4444C24.4536 32.1865 24.8033 32.0417 25.168 32.0417H40.293C41.387 32.0417 42.4362 31.6071 43.2098 30.8335C43.9834 30.0599 44.418 29.0107 44.418 27.9167V24.9948C45.5982 24.6882 46.6434 23.9989 47.3898 23.0347C48.1363 22.0705 48.5418 20.886 48.543 19.6667ZM19.668 19.6667C19.668 19.1228 19.8293 18.5911 20.1314 18.1388C20.4336 17.6866 20.8631 17.3341 21.3656 17.126C21.8681 16.9179 22.421 16.8634 22.9545 16.9695C23.4879 17.0756 23.9779 17.3375 24.3625 17.7221C24.7471 18.1067 25.009 18.5967 25.1151 19.1302C25.2213 19.6636 25.1668 20.2165 24.9587 20.719C24.7505 21.2215 24.398 21.651 23.9458 21.9532C23.4936 22.2554 22.9619 22.4167 22.418 22.4167C21.6886 22.4167 20.9892 22.1269 20.4734 21.6112C19.9577 21.0955 19.668 20.396 19.668 19.6667ZM25.168 41.6667C25.168 42.2106 25.0067 42.7422 24.7045 43.1945C24.4023 43.6467 23.9729 43.9992 23.4704 44.2073C22.9679 44.4155 22.4149 44.4699 21.8815 44.3638C21.348 44.2577 20.858 43.9958 20.4734 43.6112C20.0888 43.2266 19.8269 42.7366 19.7208 42.2032C19.6147 41.6697 19.6692 41.1168 19.8773 40.6143C20.0855 40.1118 20.4379 39.6823 20.8902 39.3801C21.3424 39.0779 21.8741 38.9167 22.418 38.9167C23.1473 38.9167 23.8468 39.2064 24.3625 39.7221C24.8783 40.2378 25.168 40.9373 25.168 41.6667ZM43.043 22.4167C42.4991 22.4167 41.9674 22.2554 41.5152 21.9532C41.0629 21.651 40.7105 21.2215 40.5023 20.719C40.2942 20.2165 40.2397 19.6636 40.3458 19.1302C40.4519 18.5967 40.7138 18.1067 41.0984 17.7221C41.483 17.3375 41.973 17.0756 42.5065 16.9695C43.0399 16.8634 43.5929 16.9179 44.0954 17.126C44.5979 17.3341 45.0273 17.6866 45.3295 18.1388C45.6317 18.5911 45.793 19.1228 45.793 19.6667C45.793 20.396 45.5033 21.0955 44.9875 21.6112C44.4718 22.1269 43.7723 22.4167 43.043 22.4167Z" fill="black"/>
</svg>
