<svg width="60" height="60" viewBox="0 0 60 60" fill="none" xmlns="http://www.w3.org/2000/svg">
<rect width="60" height="60" rx="10" fill="#12FF80" fill-opacity="0.22"/>
<path d="M45 30C45 30.3315 44.8683 30.6495 44.6339 30.8839C44.3995 31.1183 44.0815 31.25 43.75 31.25H31.25V43.75C31.25 44.0815 31.1183 44.3995 30.8839 44.6339C30.6495 44.8683 30.3315 45 30 45C29.6685 45 29.3505 44.8683 29.1161 44.6339C28.8817 44.3995 28.75 44.0815 28.75 43.75V31.25H16.25C15.9185 31.25 15.6005 31.1183 15.3661 30.8839C15.1317 30.6495 15 30.3315 15 30C15 29.6685 15.1317 29.3505 15.3661 29.1161C15.6005 28.8817 15.9185 28.75 16.25 28.75H28.75V16.25C28.75 15.9185 28.8817 15.6005 29.1161 15.3661C29.3505 15.1317 29.6685 15 30 15C30.3315 15 30.6495 15.1317 30.8839 15.3661C31.1183 15.6005 31.25 15.9185 31.25 16.25V28.75H43.75C44.0815 28.75 44.3995 28.8817 44.6339 29.1161C44.8683 29.3505 45 29.6685 45 30Z" fill="black"/>
</svg>
